<?xml version="1.0" encoding="UTF-8"?>
<svg version="1.1" xmlns="http://www.w3.org/2000/svg" width="756" height="203">
<path d="M0 0 C1.14146484 0.00193359 2.28292969 0.00386719 3.45898438 0.00585938 C20.27504986 0.26515907 32.41892372 6.0385658 44.4375 17.5625 C65.02092167 39.42419149 75.56214062 69.54045307 76.56640625 99.39453125 C76.3666518 102.8311231 75.94530692 106.15763636 75.4375 109.5625 C75.24292256 111.21317094 75.0517873 112.86424969 74.86328125 114.515625 C71.65203955 141.18447723 61.28779354 169.38000069 39.81494141 186.88525391 C26.40564893 196.99415928 10.25104173 201.89842273 -6.5625 200.5625 C-26.6727511 197.22753328 -41.35924622 186.37762473 -53.21875 169.953125 C-72.24678521 142.7211992 -77.73192356 108.45890022 -72.4375 75.875 C-68.00116756 52.12110596 -56.49868109 27.6419821 -36.375 13.2890625 C-32.83911532 10.92467071 -29.25883868 8.66745999 -25.5625 6.5625 C-24.68795166 6.03825439 -23.81340332 5.51400879 -22.91235352 4.97387695 C-15.11234166 0.61991742 -8.85118297 -0.28584557 0 0 Z M-21.5625 67.5625 C-28.00873351 77.24788567 -30.1219245 88.48530579 -30 99.9375 C-29.99242676 100.94192139 -29.98485352 101.94634277 -29.97705078 102.98120117 C-29.72127156 114.53887469 -27.05550162 125.41541414 -19.5625 134.5625 C-12.27427005 140.85628565 -5.147514 143.08001888 4.40625 142.8671875 C10.93477857 142.21096942 15.60800758 139.79646586 20.125 135.0625 C31.35393231 121.03939151 33.00692536 104.90657988 31.4375 87.5625 C29.75098358 77.90123107 24.83597362 67.63634815 16.90625 61.65234375 C3.22952836 53.14461838 -10.88068467 55.34283577 -21.5625 67.5625 Z " fill="#000000" transform="translate(420.5625,0.4375)"/>
<path d="M0 0 C1.00213531 -0.00554901 2.00427063 -0.01109802 3.03677368 -0.01681519 C6.34442155 -0.02861279 9.65070023 -0.00433902 12.95825195 0.02148438 C15.25559934 0.02319509 17.55294868 0.02313019 19.85029602 0.0213623 C24.66129261 0.02301547 29.47182318 0.04171774 34.28271484 0.07324219 C40.46038962 0.11298638 46.63745577 0.11727966 52.81523418 0.10977936 C57.55662143 0.10671602 62.29787087 0.1188064 67.03922462 0.13591003 C69.31788075 0.14295744 71.59655248 0.14606247 73.87521935 0.1452179 C77.05251925 0.14700786 80.22907767 0.16831904 83.40625 0.1953125 C84.35433029 0.1923819 85.30241058 0.18945129 86.27922058 0.18643188 C87.14140198 0.19778168 88.00358337 0.20913147 88.89189148 0.2208252 C89.64311122 0.22455391 90.39433096 0.22828262 91.16831493 0.23212433 C93.0090332 0.61523437 93.0090332 0.61523437 95.0090332 3.61523438 C94.6003418 6.02877808 94.6003418 6.02877808 93.6574707 8.94677734 C93.3070874 10.05344757 92.9567041 11.1601178 92.59570312 12.30032349 C92.19585205 13.51541595 91.79600098 14.73050842 91.3840332 15.98242188 C90.96923193 17.27460634 90.55560458 18.56716815 90.14306641 19.8600769 C89.01604788 23.38063091 87.87249365 26.89562202 86.72625732 30.40995789 C85.52515514 34.10303279 84.34027211 37.80130361 83.15356445 41.49902344 C80.38409103 50.11742198 77.58914348 58.72745186 74.79016113 67.33630371 C73.74818608 70.54299454 72.70840461 73.75039479 71.66862488 76.957798 C70.3874665 80.90910592 69.10484314 84.85993726 67.8215332 88.81054688 C67.57345917 89.5742585 67.32538513 90.33797012 67.0697937 91.12482452 C64.49481552 99.0467688 61.90360788 106.9626424 59.25512695 114.86035156 C58.93334221 115.82059518 58.93334221 115.82059518 58.60505676 116.80023766 C57.60762625 119.77410941 56.60586036 122.74642338 55.59814453 125.71682739 C55.25420654 126.73759369 54.91026855 127.75835999 54.5559082 128.81005859 C54.25523437 129.69603729 53.95456055 130.58201599 53.64477539 131.49484253 C52.91330243 133.56558431 52.91330243 133.56558431 53.0090332 135.61523438 C54.21027832 135.63505371 55.41152344 135.65487305 56.64916992 135.67529297 C61.09600175 135.75123058 65.54250125 135.83996569 69.98901367 135.93261719 C71.91537934 135.97095606 73.8418178 136.0058002 75.76831055 136.03710938 C78.53371238 136.08265382 81.29861089 136.14066474 84.0637207 136.20117188 C84.9283493 136.21272308 85.79297791 136.22427429 86.68380737 136.23617554 C92.78128979 136.38749096 92.78128979 136.38749096 95.0090332 138.61523438 C95.26972961 140.85437012 95.26972961 140.85437012 95.28369141 143.67578125 C95.29322342 144.73027466 95.30275543 145.78476807 95.31257629 146.87121582 C95.31166489 148.01392944 95.31075348 149.15664307 95.30981445 150.33398438 C95.31409958 151.50280151 95.3183847 152.67161865 95.32279968 153.87585449 C95.32855077 156.35066072 95.32903755 158.82548385 95.32470703 161.30029297 C95.32154623 165.09957514 95.34500059 168.89807978 95.37036133 172.69726562 C95.37263404 175.09700422 95.37333795 177.49674492 95.37231445 179.89648438 C95.3815242 181.039198 95.39073395 182.18191162 95.40022278 183.35925293 C95.39399399 184.41374634 95.3877652 185.46823975 95.38134766 186.5546875 C95.38197708 187.48575317 95.38260651 188.41681885 95.383255 189.37609863 C95.19801521 190.48447083 95.19801521 190.48447083 95.0090332 191.61523438 C91.93948177 193.661602 91.32890362 193.86563471 87.87207031 193.86920166 C86.61026443 193.87766113 86.61026443 193.87766113 85.32296753 193.8862915 C83.94360519 193.88021881 83.94360519 193.88021881 82.53637695 193.87402344 C81.5654007 193.87752808 80.59442444 193.88103271 79.59402466 193.88464355 C76.37812187 193.89346024 73.16243831 193.88761187 69.9465332 193.88085938 C67.71598264 193.88220604 65.48543237 193.88414659 63.25488281 193.88665771 C58.57752694 193.8896089 53.9002474 193.88531148 49.22290039 193.87597656 C43.22024968 193.86458209 37.21777781 193.87114158 31.21513367 193.88312149 C26.60842536 193.89034022 22.00175962 193.88805209 17.39505005 193.88286591 C15.18140644 193.88152945 12.967759 193.88317699 10.75411987 193.88782501 C7.66320523 193.89289039 4.57258231 193.8851797 1.48168945 193.87402344 C0.56211456 193.8780719 -0.35746033 193.88212036 -1.30490112 193.8862915 C-2.14610504 193.88065186 -2.98730896 193.87501221 -3.85400391 193.86920166 C-4.58477646 193.86844761 -5.31554901 193.86769356 -6.06846619 193.86691666 C-7.9909668 193.61523438 -7.9909668 193.61523438 -10.9909668 191.61523438 C-10.41120723 186.81857035 -9.44609645 182.45770982 -7.9440918 177.86865234 C-7.73684982 177.23000811 -7.52960785 176.59136387 -7.31608582 175.93336678 C-6.62978078 173.82291407 -5.93537276 171.71522156 -5.2409668 169.60742188 C-4.74962851 168.10149256 -4.25883697 166.59538477 -3.76855469 165.08911133 C-2.72435213 161.88448914 -1.6767011 158.68102433 -0.6262207 155.47845459 C1.01437286 150.47657423 2.64736397 145.47223556 4.27856445 140.46728516 C4.82690177 138.78500284 5.37524162 137.10272134 5.92358398 135.42044067 C6.19527405 134.58686161 6.46696411 133.75328255 6.74688721 132.89444351 C7.57312792 130.36034334 8.40012 127.82648946 9.22729492 125.29269409 C14.2049522 110.0412604 19.11923136 94.77005377 24.0090332 79.49023438 C24.73297162 77.22964857 25.4569293 74.96906893 26.1809082 72.70849609 C27.79162555 67.67783739 29.40087723 62.64671243 31.0090332 57.61523438 C29.75243896 57.62047119 28.49584473 57.62570801 27.20117188 57.63110352 C22.54395254 57.64918854 17.88673632 57.66067925 13.22949219 57.67016602 C11.21288532 57.6751982 9.1962821 57.68202452 7.1796875 57.69067383 C4.28294982 57.70278811 1.38626033 57.7084738 -1.51049805 57.71289062 C-2.41371292 57.71805191 -3.3169278 57.7232132 -4.24751282 57.72853088 C-5.5084803 57.72864418 -5.5084803 57.72864418 -6.79492188 57.72875977 C-7.53438553 57.73098038 -8.27384918 57.73320099 -9.03572083 57.73548889 C-10.9909668 57.61523438 -10.9909668 57.61523438 -13.9909668 56.61523438 C-15.19238829 54.2123914 -15.14327244 52.65364764 -15.18383789 49.96948242 C-15.19990082 49.0047551 -15.21596375 48.04002777 -15.23251343 47.04606628 C-15.27693193 42.632036 -15.3180268 38.21815653 -15.34106445 33.80395508 C-15.35762854 31.47507742 -15.38492422 29.14625068 -15.4230957 26.81762695 C-15.47782682 23.4621337 -15.49973327 20.10783247 -15.5144043 16.75195312 C-15.53707367 15.71221848 -15.55974304 14.67248383 -15.58309937 13.60124207 C-15.58024933 12.62705826 -15.57739929 11.65287445 -15.57446289 10.64916992 C-15.58254974 9.79582565 -15.5906366 8.94248138 -15.59896851 8.0632782 C-13.55675544 -0.15944061 -7.05503306 -0.0993332 0 0 Z " fill="#000000" transform="translate(175.990966796875,3.384765625)"/>
<path d="M0 0 C5.95416953 5.16978791 11.9382901 10.50237029 14.484375 18.140625 C14.35028126 24.17484316 9.60779818 28.0983667 5.58203125 32.1640625 C5.01866562 32.7364566 4.45529999 33.30885071 3.87486267 33.89859009 C2.68825877 35.09963961 1.49887721 36.29795055 0.30688477 37.49365234 C-1.51863231 39.33115205 -3.32466341 41.18649849 -5.13085938 43.04296875 C-6.2879115 44.20947613 -7.44607675 45.37488069 -8.60546875 46.5390625 C-9.14413071 47.09725677 -9.68279266 47.65545105 -10.23777771 48.2305603 C-11.78491211 49.75927734 -11.78491211 49.75927734 -14.578125 51.953125 C-17.7399883 51.9067136 -18.49772826 51.0248302 -20.890625 48.890625 C-24.42500736 46.3425819 -26.30655845 46.26662323 -30.578125 46.953125 C-33.92726172 49.56741205 -35.41397808 51.02318804 -36.16162109 55.25878906 C-36.13189209 57.09521973 -36.13189209 57.09521973 -36.1015625 58.96875 C-36.09685944 59.62518494 -36.09215637 60.28161987 -36.08731079 60.95794678 C-36.06607016 63.04076874 -36.00949006 65.1209899 -35.953125 67.203125 C-35.93660737 68.61716357 -35.92226201 70.03122928 -35.91015625 71.4453125 C-36.43614473 77.67680212 -36.43614473 77.67680212 -34.578125 82.953125 C-32.91608013 83.16088061 -31.24783009 83.32030755 -29.578125 83.453125 C-24.68923611 83.84201389 -24.68923611 83.84201389 -23.578125 84.953125 C-23.47445473 86.50763488 -23.43960978 88.06680755 -23.43286133 89.62475586 C-23.42648148 90.61926254 -23.42010162 91.61376923 -23.41352844 92.63841248 C-23.41241562 93.72066605 -23.4113028 94.80291962 -23.41015625 95.91796875 C-23.40516365 97.57343468 -23.40516365 97.57343468 -23.40007019 99.26234436 C-23.39499614 101.60189394 -23.39266201 103.94145078 -23.39282227 106.28100586 C-23.39063652 109.87170266 -23.37248766 113.46209204 -23.35351562 117.05273438 C-23.35058173 119.32031144 -23.34859691 121.58788998 -23.34765625 123.85546875 C-23.34047073 124.93569809 -23.33328522 126.01592743 -23.32588196 127.12889099 C-23.32895859 128.12654984 -23.33203522 129.12420868 -23.33520508 130.15209961 C-23.33378006 131.03288681 -23.33235504 131.91367401 -23.33088684 132.82115173 C-23.578125 134.953125 -23.578125 134.953125 -25.578125 136.953125 C-27.70703125 137.33203125 -27.70703125 137.33203125 -30.140625 137.515625 C-33.15860288 137.53761803 -33.15860288 137.53761803 -35.578125 138.953125 C-35.68995792 140.38474431 -35.73482509 141.82168696 -35.75170898 143.25756836 C-35.76519882 144.17199203 -35.77868866 145.08641571 -35.79258728 146.02854919 C-35.80302567 147.02330765 -35.81346405 148.0180661 -35.82421875 149.04296875 C-35.85715186 151.12695741 -35.8903636 153.21094168 -35.92382812 155.29492188 C-35.97131892 158.59787009 -36.01574571 161.90079982 -36.05493164 165.20385742 C-36.0945186 168.37958523 -36.14609262 171.55494273 -36.19921875 174.73046875 C-36.2076329 175.72320297 -36.21604706 176.71593719 -36.22471619 177.73875427 C-36.24135818 178.65633011 -36.25800018 179.57390594 -36.27514648 180.51928711 C-36.28545395 181.32901474 -36.29576141 182.13874237 -36.30638123 182.9730072 C-36.578125 184.953125 -36.578125 184.953125 -38.578125 186.953125 C-41.33990938 187.1529947 -43.99922583 187.23291401 -46.76171875 187.21875 C-47.97868187 187.22162018 -47.97868187 187.22162018 -49.2202301 187.22454834 C-50.9375947 187.22591042 -52.65496959 187.22221238 -54.37231445 187.21386719 C-57.00170048 187.20318159 -59.63040112 187.21375435 -62.25976562 187.2265625 C-63.92708484 187.22524064 -65.59440363 187.22267769 -67.26171875 187.21875 C-68.04929062 187.22279846 -68.83686249 187.22684692 -69.64830017 187.23101807 C-73.48461667 187.19807182 -75.31070111 187.1314076 -78.578125 184.953125 C-79.59780431 181.89408706 -79.69770177 179.85195089 -79.68733215 176.65083313 C-79.6860733 175.55074921 -79.68481445 174.45066528 -79.68351746 173.31724548 C-79.67685562 172.10951981 -79.67019379 170.90179413 -79.66333008 169.6574707 C-79.66014771 168.38550842 -79.65696533 167.11354614 -79.65368652 165.80303955 C-79.64430688 162.30841731 -79.6279635 158.81386296 -79.60931611 155.31927896 C-79.59766184 153.12995656 -79.58699886 150.94063129 -79.57657433 148.75130272 C-79.5433073 141.88482725 -79.50526087 135.01839927 -79.46120912 128.15198451 C-79.41070627 120.25892889 -79.37632156 112.36602273 -79.35602838 104.47283298 C-79.33924199 98.35441964 -79.30722911 92.23619725 -79.26418227 86.11791295 C-79.2388924 82.47328329 -79.21978286 78.82888982 -79.21680641 75.18416786 C-79.17580448 40.05955444 -79.17580448 40.05955444 -70.828125 24.640625 C-70.48450928 23.98384766 -70.14089355 23.32707031 -69.78686523 22.65039062 C-62.77447235 9.58060621 -53.78073299 -1.64988396 -39.578125 -7.046875 C-25.2704664 -11.25112545 -11.74934813 -9.32827034 0 0 Z " fill="#000000" transform="translate(79.578125,9.046875)"/>
<path d="M0 0 C3.94252365 3.04444336 7.50342517 6.45524402 11 10 C9.89432937 13.31701189 9.42425839 13.67457212 6.6484375 15.5234375 C5.96136719 15.9875 5.27429688 16.4515625 4.56640625 16.9296875 C3.84324219 17.40664063 3.12007812 17.88359375 2.375 18.375 C0.96573534 19.31970043 -0.4431219 20.26500893 -1.8515625 21.2109375 C-2.54024414 21.67081055 -3.22892578 22.13068359 -3.93847656 22.60449219 C-7.00181988 24.67816229 -10.00060034 26.83507899 -13 29 C-13.53625 28.71125 -14.0725 28.4225 -14.625 28.125 C-20.0008316 25.40711805 -20.0008316 25.40711805 -25.8125 25.75 C-29.22417543 29.25915187 -28.9023801 33.26987216 -29 38 C-28.38253906 37.90460937 -27.76507812 37.80921875 -27.12890625 37.7109375 C-18.37171048 36.5646379 -11.32639653 37.41456843 -3.91796875 42.45703125 C4.08476511 48.8950758 7.64920917 55.96171612 9 66 C9.15612123 69.66003952 9.16393108 73.31746491 9.16796875 76.98046875 C9.17296135 78.55517693 9.17296135 78.55517693 9.17805481 80.16169739 C9.18310326 82.37301191 9.18546378 84.58433401 9.18530273 86.7956543 C9.18749913 90.18616098 9.20570398 93.57634727 9.22460938 96.96679688 C9.22754169 99.11718639 9.22952757 101.26757744 9.23046875 103.41796875 C9.23765427 104.43360397 9.24483978 105.4492392 9.25224304 106.49565125 C9.24916641 107.4370546 9.24608978 108.37845795 9.24291992 109.34838867 C9.24434494 110.17634445 9.24576996 111.00430023 9.24723816 111.85734558 C9 114 9 114 7 117 C4.20263672 117.34057617 4.20263672 117.34057617 0.6796875 117.29296875 C-0.57714844 117.28330078 -1.83398438 117.27363281 -3.12890625 117.26367188 C-5.10697266 117.2259668 -5.10697266 117.2259668 -7.125 117.1875 C-8.46482903 117.17245483 -9.80467404 117.15876613 -11.14453125 117.14648438 C-14.43008842 117.11102872 -17.71484582 117.06160849 -21 117 C-21.00808685 116.44511902 -21.01617371 115.89023804 -21.02450562 115.31854248 C-21.11056256 109.54334593 -21.21006667 103.76849216 -21.31738281 97.99365234 C-21.35566602 95.83843747 -21.39052004 93.68315884 -21.421875 91.52783203 C-21.4675395 88.42978124 -21.52553212 85.33216909 -21.5859375 82.234375 C-21.59748871 81.27070007 -21.60903992 80.30702515 -21.62094116 79.31414795 C-21.64081085 78.41351624 -21.66068054 77.51288452 -21.68115234 76.58496094 C-21.69447601 75.79442322 -21.70779968 75.0038855 -21.7215271 74.18939209 C-22.02982363 71.76552254 -22.79371286 70.10892723 -24 68 C-25.65 68 -27.3 68 -29 68 C-30.92918406 73.70970792 -31.33548376 78.86728783 -31.4140625 84.87109375 C-31.43342865 85.793423 -31.4527948 86.71575226 -31.4727478 87.66603088 C-31.5321612 90.58976211 -31.57877509 93.51353353 -31.625 96.4375 C-31.66321502 98.4290529 -31.70226877 100.4205899 -31.7421875 102.41210938 C-31.83939787 107.27465321 -31.9192694 112.13704336 -32 117 C-41.9 117 -51.8 117 -62 117 C-62.06058594 113.63039063 -62.12117187 110.26078125 -62.18359375 106.7890625 C-62.24535162 103.53578372 -62.30875238 100.28254084 -62.37231445 97.02929688 C-62.4157023 94.76337866 -62.45737449 92.49742693 -62.49731445 90.23144531 C-62.55492385 86.97971482 -62.61864502 83.72815364 -62.68359375 80.4765625 C-62.70030624 79.45881744 -62.71701874 78.44107239 -62.73423767 77.39248657 C-62.7641555 75.98125015 -62.7641555 75.98125015 -62.79467773 74.54150391 C-62.81799416 73.29574081 -62.81799416 73.29574081 -62.84178162 72.02481079 C-62.87765197 69.93121564 -62.87765197 69.93121564 -64 68 C-65.65 68 -67.3 68 -69 68 C-71.17383527 73.28582386 -71.24796138 77.87680345 -71.16015625 83.484375 C-71.15495468 84.38117981 -71.14975311 85.27798462 -71.14439392 86.20196533 C-71.12665701 89.05147905 -71.09547553 91.90062514 -71.0625 94.75 C-71.03488669 97.61361998 -71.01019933 100.47719017 -70.99131775 103.34088135 C-70.97905265 105.11937023 -70.96144126 106.89783176 -70.93800354 108.6762085 C-70.88828524 114.77657049 -70.88828524 114.77657049 -72 117 C-76.1117256 117.02465746 -80.22342278 117.04283959 -84.33520508 117.05493164 C-85.73495228 117.0599708 -87.1346942 117.06680216 -88.53442383 117.07543945 C-90.54245777 117.0875232 -92.55052957 117.09269807 -94.55859375 117.09765625 C-95.76829834 117.10289307 -96.97800293 117.10812988 -98.22436523 117.11352539 C-101 117 -101 117 -102 116 C-102.11429219 114.39629511 -102.15959426 112.78760979 -102.17700195 111.17993164 C-102.18983719 110.15118423 -102.20267242 109.12243683 -102.21589661 108.06251526 C-102.22328354 106.93973679 -102.23067047 105.81695831 -102.23828125 104.66015625 C-102.246353 103.50889755 -102.25442474 102.35763885 -102.26274109 101.17149353 C-102.27660858 98.7242891 -102.28731873 96.27706512 -102.29516602 93.82983398 C-102.31228384 90.10948037 -102.35613591 86.3900372 -102.40039062 82.66992188 C-102.41052551 80.2916732 -102.41903911 77.91341696 -102.42578125 75.53515625 C-102.44328934 74.43059586 -102.46079742 73.32603546 -102.47883606 72.18800354 C-102.45041743 61.91929199 -99.82565999 54.14300773 -92.70703125 46.6796875 C-91.86205078 45.84824219 -91.86205078 45.84824219 -91 45 C-90.2575 44.2575 -89.515 43.515 -88.75 42.75 C-81.79137538 38.32178433 -74.24367404 36.00422947 -66 37 C-64.6607492 37.30870079 -63.3251167 37.63537057 -62 38 C-61.98582031 37.28457031 -61.97164062 36.56914063 -61.95703125 35.83203125 C-61.39074118 24.00116039 -58.1028414 13.84807441 -49.73828125 5.23046875 C-35.94343667 -6.00613075 -15.57509053 -9.74782145 0 0 Z " fill="#000000" transform="translate(656,6)"/>
<path d="M0 0 C1.21720482 0.00136711 1.21720482 0.00136711 2.45899963 0.00276184 C3.29250443 -0.00152328 4.12600922 -0.00580841 4.98477173 -0.01022339 C6.74920238 -0.01597126 8.51365674 -0.01646359 10.27809143 -0.01213074 C12.98008121 -0.00897336 15.68097367 -0.03241436 18.38282776 -0.05778503 C20.095717 -0.06005822 21.80860919 -0.06076143 23.52149963 -0.05973816 C24.33094528 -0.06894791 25.14039093 -0.07815765 25.97436523 -0.08764648 C31.49712376 -0.04202945 31.49712376 -0.04202945 33.7701664 1.36182404 C35.73099127 4.32132822 35.46964959 7.31114225 35.43760681 10.74336243 C35.44462677 11.88946873 35.44462677 11.88946873 35.45178854 13.05872869 C35.46378384 15.62683659 35.45426384 18.19441532 35.44483948 20.76252747 C35.44890317 22.6004467 35.45424391 24.43836349 35.46076965 26.27627563 C35.47447312 31.27413457 35.46913212 36.27180821 35.4596324 41.26967049 C35.45205148 46.49332819 35.45907704 51.71696974 35.46379089 56.94062805 C35.46925302 65.71380978 35.46204483 74.48691582 35.44776917 83.26008606 C35.43144179 93.41154404 35.43672998 103.56282128 35.45324838 113.71427488 C35.46685022 122.42090769 35.46878929 131.127486 35.46093237 139.834126 C35.45624869 145.03825119 35.45565008 150.24229136 35.46554184 155.44641113 C35.47419029 160.33837049 35.46822851 165.23009621 35.45085907 170.12203026 C35.44688286 171.92038268 35.44804757 173.71875467 35.45464706 175.51709938 C35.46280805 177.96624214 35.45260764 180.41462953 35.43760681 182.86372375 C35.44764506 183.93895743 35.44764506 183.93895743 35.4578861 185.03591299 C35.42400025 187.87524583 35.36116735 189.84633059 33.76343727 192.24526215 C30.73113511 194.12542537 27.23532012 193.70744586 23.77540588 193.66682434 C22.96551208 193.66732285 22.15561829 193.66782135 21.32118225 193.66833496 C19.60977219 193.66599567 17.89835861 193.65627564 16.18702698 193.63972473 C13.56643431 193.61613113 10.94685903 193.61916476 8.32618713 193.62580872 C6.66342065 193.62023185 5.00065845 193.61312192 3.33790588 193.60432434 C2.55347107 193.60523575 1.76903625 193.60614716 0.96083069 193.60708618 C-2.86174058 193.55723137 -4.68809379 193.47370998 -7.94334412 191.30354309 C-8.24234206 188.75648635 -8.34338768 186.45118096 -8.31756592 183.90132141 C-8.32154032 183.1292323 -8.32551473 182.35714318 -8.32960957 181.56165743 C-8.33927578 178.96046108 -8.32738869 176.35980277 -8.31565857 173.75862122 C-8.31808511 171.89952389 -8.32180309 170.04042786 -8.32672119 168.18133545 C-8.33615265 163.12149437 -8.32668587 158.06184596 -8.31338906 153.00201988 C-8.3021017 147.71650017 -8.30617996 142.43099033 -8.30813599 137.14546204 C-8.30901982 128.26794778 -8.29791984 119.39050976 -8.27952576 110.51301575 C-8.25835677 100.23718884 -8.25484772 89.96147366 -8.26108772 79.68562937 C-8.26677488 69.81634445 -8.26114337 59.94709904 -8.24991417 50.07781982 C-8.24525958 45.87050651 -8.24439804 41.66321729 -8.24650002 37.4559021 C-8.2483784 32.50490277 -8.2403138 27.55401777 -8.22443962 22.60304451 C-8.22018323 20.78169795 -8.21935525 18.96033982 -8.22212982 17.1389904 C-8.22533285 14.66112144 -8.2163177 12.18359816 -8.20404053 9.70576477 C-8.20781985 8.97756546 -8.21159917 8.24936616 -8.21549302 7.49910021 C-8.15683691 0.85011463 -6.49100745 0.08239164 0 0 Z " fill="#000000" transform="translate(292.94334411621094,3.6964569091796875)"/>
<path d="M0 0 C1.25472107 0.00607269 1.25472107 0.00607269 2.53479004 0.01226807 C3.39286255 0.01035461 4.25093506 0.00844116 5.13500977 0.00646973 C6.95072726 0.00510763 8.76645449 0.00880579 10.58215332 0.01715088 C13.36736854 0.02785015 16.15193872 0.01725653 18.93713379 0.00445557 C20.69885397 0.00577716 22.46057374 0.00833954 24.22229004 0.01226807 C25.05877075 0.0082196 25.89525146 0.00417114 26.75708008 0 C32.6486217 0.04797473 32.6486217 0.04797473 34.87854004 2.27789307 C35.07811287 4.76912613 35.15224236 7.14956487 35.13923645 9.64215088 C35.14497477 10.79415922 35.14497477 10.79415922 35.15082902 11.96944046 C35.16119206 14.55670155 35.15716068 17.14374208 35.15319824 19.73101807 C35.15754286 21.58026333 35.16272517 23.4295068 35.16868591 25.27874756 C35.18211323 30.31168093 35.18265051 35.34453938 35.18012261 40.37748718 C35.17905555 44.57263931 35.18392939 48.7677761 35.18872803 52.96292496 C35.19983587 62.85568632 35.20025328 72.74840972 35.19421387 82.64117432 C35.18817005 92.86249186 35.20049253 103.08367189 35.22178394 113.30496597 C35.23936883 122.06760667 35.24540628 130.83020347 35.24214619 139.59286118 C35.24032841 144.83218878 35.2430187 150.07141827 35.25686073 155.31072998 C35.26938418 160.23549062 35.26754732 165.16003598 35.25444984 170.08479309 C35.25207259 171.89646984 35.2548595 173.70816148 35.26307297 175.51982117 C35.27344559 177.98468008 35.26551727 180.4488038 35.25276184 182.91363525 C35.26013613 183.63794361 35.26751041 184.36225197 35.27510816 185.10850906 C35.25327015 187.10131836 35.25327015 187.10131836 34.87854004 190.27789307 C31.07510255 192.81351806 28.0034873 192.56625842 23.59729004 192.54351807 C22.78739624 192.54543152 21.97750244 192.54734497 21.14306641 192.54931641 C19.43167815 192.55067668 17.72027953 192.54699123 16.00891113 192.53863525 C13.38839556 192.52793332 10.76856552 192.53853566 8.14807129 192.55133057 C6.48530936 192.55000894 4.82254785 192.54744649 3.15979004 192.54351807 C2.37535522 192.54756653 1.59092041 192.55161499 0.78271484 192.55578613 C-3.04651376 192.52275553 -4.85961678 192.45245519 -8.12145996 190.27789307 C-8.42048014 187.74310892 -8.52151726 185.45121897 -8.49568176 182.91363525 C-8.49965617 182.14562969 -8.50363057 181.37762413 -8.50772542 180.58634567 C-8.51739145 177.99896787 -8.50550466 175.412131 -8.49377441 172.82476807 C-8.49620096 170.97552282 -8.49991895 169.12627888 -8.50483704 167.27703857 C-8.51426841 162.24405577 -8.50480179 157.21126667 -8.49150491 152.17829895 C-8.48021745 146.92080645 -8.48429581 141.66332388 -8.48625183 136.40582275 C-8.48713567 127.57538678 -8.47603574 118.74502744 -8.4576416 109.91461182 C-8.43647262 99.69331632 -8.43296357 89.47213314 -8.43920356 79.25082016 C-8.44489074 69.43386089 -8.43925919 59.61694134 -8.42803001 49.79998779 C-8.42337545 45.61500314 -8.42251387 41.4300427 -8.42461586 37.24505615 C-8.42649426 32.3203214 -8.41842951 27.39570159 -8.40255547 22.47099304 C-8.39829912 20.65932185 -8.39747107 18.84763903 -8.40024567 17.03596497 C-8.40344876 14.57123252 -8.39443338 12.10684757 -8.38215637 9.64215088 C-8.3859357 8.91784252 -8.38971502 8.19353416 -8.39360887 7.44727707 C-8.33376787 0.69971965 -6.54710566 0.05331297 0 0 Z " fill="#000000" transform="translate(113.1214599609375,4.72210693359375)"/>
<path d="M0 0 C2.4576418 2.74384819 4.18886338 5.80555431 6 9 C6.56332031 9.9075 7.12664063 10.815 7.70703125 11.75 C12 18.6670082 12 18.6670082 12 21 C12.66 21 13.32 21 14 21 C14.26167969 20.31035156 14.52335938 19.62070313 14.79296875 18.91015625 C16.14333889 15.65440947 17.67993606 12.56145273 19.3125 9.4375 C19.88613281 8.32246094 20.45976563 7.20742187 21.05078125 6.05859375 C23.1487293 2.76662316 24.62704376 0.96597871 28 -1 C30.88597788 -1.33952681 33.32479802 -1.47344586 36.1875 -1.375 C36.91130859 -1.37371094 37.63511719 -1.37242187 38.38085938 -1.37109375 C43.71827696 -1.28172304 43.71827696 -1.28172304 46 1 C46.24723816 3.4356842 46.24723816 3.4356842 46.24291992 6.53540039 C46.24753487 8.27213768 46.24753487 8.27213768 46.25224304 10.04396057 C46.24146477 11.92678993 46.24146477 11.92678993 46.23046875 13.84765625 C46.23001053 15.12982529 46.22955231 16.41199432 46.2290802 17.73301697 C46.22751538 20.44747324 46.21922513 23.16179761 46.20581055 25.8762207 C46.1888037 29.3624199 46.18499668 32.8484743 46.18575573 36.33471012 C46.1854191 39.65154504 46.17658537 42.96833206 46.16796875 46.28515625 C46.16685593 47.54240005 46.1657431 48.79964386 46.16459656 50.09498596 C46.15821671 51.24965866 46.15183685 52.40433136 46.14526367 53.59399414 C46.14145187 54.61610489 46.13764008 55.63821564 46.13371277 56.69129944 C46 59 46 59 45 60 C43.43827255 60.08685603 41.87270656 60.10702219 40.30859375 60.09765625 C39.36435547 60.09443359 38.42011719 60.09121094 37.44726562 60.08789062 C36.45404297 60.07951172 35.46082031 60.07113281 34.4375 60.0625 C33.44041016 60.05798828 32.44332031 60.05347656 31.41601562 60.04882812 C28.94398513 60.03700023 26.47198528 60.01906415 24 60 C23.67 54.39 23.34 48.78 23 43 C20.03 49.27 17.06 55.54 14 62 C11.51072979 59.51072979 10.42166753 58.20833511 8.95703125 55.20703125 C8.60576172 54.49482422 8.25449219 53.78261719 7.89257812 53.04882812 C7.53615234 52.31083984 7.17972656 51.57285156 6.8125 50.8125 C6.26045898 49.68811523 6.26045898 49.68811523 5.69726562 48.54101562 C4.79271782 46.69667788 3.89562424 44.84868755 3 43 C2.67 48.61 2.34 54.22 2 60 C-5.26 60 -12.52 60 -20 60 C-20.02257134 52.47228485 -20.04092691 44.94458224 -20.05181217 37.41684151 C-20.05703593 33.92159902 -20.06412441 30.42638084 -20.07543945 26.93115234 C-20.08835974 22.91503666 -20.0932324 18.8989466 -20.09765625 14.8828125 C-20.10281754 13.62445587 -20.10797882 12.36609924 -20.11329651 11.0696106 C-20.11337204 9.90855804 -20.11344757 8.74750549 -20.11352539 7.55126953 C-20.115746 6.52534698 -20.11796661 5.49942444 -20.12025452 4.44241333 C-20 2 -20 2 -19 0 C-13.05593738 -1.07818171 -5.69539894 -2.05034362 0 0 Z " fill="#000000" transform="translate(515,141)"/>
<path d="M0 0 C9.7447095 -0.21416944 19.4077505 -0.06590597 29.125 0.75 C30.41990356 0.8425708 30.41990356 0.8425708 31.7409668 0.93701172 C38.7225657 1.58851023 45.58512147 3.5327661 50.25 9.125 C56.80829976 17.6006169 58.16388008 26.46446054 57 37 C55.16146253 45.23894605 50.3104671 52.33317376 43.35693359 57.13452148 C36.17703176 61.09406481 28.37862365 60.50192407 20.42236328 60.35668945 C17.97798154 60.31209833 15.53458441 60.29516561 13.08984375 60.28320312 C11.53904815 60.269798 9.98826471 60.25488031 8.4375 60.23828125 C7.7053125 60.23089432 6.973125 60.22350739 6.21875 60.21589661 C1.11842228 60.11842228 1.11842228 60.11842228 0 59 C-0.12836388 57.26766953 -0.18841745 55.5302276 -0.22119141 53.79345703 C-0.24436432 52.68205353 -0.26753723 51.57065002 -0.29141235 50.42556763 C-0.3112619 49.21520844 -0.33111145 48.00484924 -0.3515625 46.7578125 C-0.37471527 45.52336395 -0.39786804 44.28891541 -0.42172241 43.01705933 C-0.48170985 39.72699881 -0.53684728 36.4368966 -0.59051514 33.14672852 C-0.6249124 31.13013584 -0.66326298 29.11365958 -0.703125 27.09716797 C-0.77902902 23.23412754 -0.84769678 19.37102736 -0.9140625 15.5078125 C-0.93796051 14.30150177 -0.96185852 13.09519104 -0.98648071 11.85232544 C-1.0033493 10.73461761 -1.0202179 9.61690979 -1.03759766 8.46533203 C-1.05456696 7.48017609 -1.07153625 6.49502014 -1.08901978 5.48001099 C-1 3 -1 3 0 0 Z M22 19 C21.97105453 22.45831586 21.95322 25.91660072 21.9375 29.375 C21.92912109 30.35984375 21.92074219 31.3446875 21.91210938 32.359375 C21.90888672 33.30039063 21.90566406 34.24140625 21.90234375 35.2109375 C21.89710693 36.08024902 21.89187012 36.94956055 21.88647461 37.84521484 C21.85877649 40.05049994 21.85877649 40.05049994 23 42 C27.42618358 41.82642417 29.51931623 41.40909257 32.9375 38.5 C35.32971611 35.19381428 35.7174481 32.21028979 35.5 28.1875 C34.64358538 24.44068602 32.75978331 22.62836505 30 20 C27.29120665 18.64560332 24.99066732 18.93498549 22 19 Z " fill="#000000" transform="translate(601,141)"/>
<path d="M0 0 C1.30710937 -0.00773438 2.61421875 -0.01546875 3.9609375 -0.0234375 C7.94734624 0.41005258 9.6492805 0.70605571 12.625 3.375 C13.56985474 5.16192627 13.56985474 5.16192627 14.49658203 7.32519531 C14.84292694 8.13270233 15.18927185 8.94020935 15.54611206 9.77218628 C17.39544277 14.23369074 19.18825721 18.71539821 20.953125 23.2109375 C21.54392853 24.71269028 21.54392853 24.71269028 22.14666748 26.24478149 C22.97128738 28.34357744 23.79477891 30.44281704 24.6171875 32.54248047 C25.88027143 35.76344255 27.15097459 38.98133417 28.421875 42.19921875 C29.22442692 44.24460787 30.02652651 46.29017454 30.828125 48.3359375 C31.20930481 49.298414 31.59048462 50.2608905 31.98321533 51.25253296 C32.3306781 52.14421173 32.67814087 53.0358905 33.03613281 53.95458984 C33.34383606 54.73796722 33.65153931 55.5213446 33.96856689 56.32846069 C34.625 58.375 34.625 58.375 34.625 61.375 C30.68774674 61.49094584 26.75093077 61.56216464 22.8125 61.625 C21.69294922 61.65851563 20.57339844 61.69203125 19.41992188 61.7265625 C18.34677734 61.73945313 17.27363281 61.75234375 16.16796875 61.765625 C15.17821045 61.78657227 14.18845215 61.80751953 13.16870117 61.82910156 C10.625 61.375 10.625 61.375 8.90893555 59.37719727 C8.48523682 58.71647217 8.06153809 58.05574707 7.625 57.375 C5.51919357 56.8552867 5.51919357 56.8552867 3.25 57.0625 C2.45980469 57.09730469 1.66960938 57.13210937 0.85546875 57.16796875 C-1.60786454 57.3966144 -3.97819046 57.75646851 -6.375 58.375 C-6.705 59.365 -7.035 60.355 -7.375 61.375 C-14.635 61.375 -21.895 61.375 -29.375 61.375 C-27.12427036 50.12135179 -27.12427036 50.12135179 -25.63500977 45.88110352 C-25.30449112 44.93054581 -24.97397247 43.9799881 -24.63343811 43.00062561 C-24.2813176 42.01170822 -23.92919708 41.02279083 -23.56640625 40.00390625 C-23.1990184 38.95976059 -22.83163055 37.91561493 -22.45310974 36.83982849 C-21.68073807 34.65120475 -20.90489579 32.46380296 -20.12573242 30.27758789 C-18.93363486 26.92663521 -17.75824638 23.57012895 -16.58398438 20.21289062 C-15.82912242 18.08037584 -15.07329708 15.94820177 -14.31640625 13.81640625 C-13.79126183 12.31177574 -13.79126183 12.31177574 -13.25550842 10.77674866 C-12.75500221 9.38400978 -12.75500221 9.38400978 -12.24438477 7.96313477 C-11.95507584 7.1472438 -11.66576691 6.33135284 -11.36769104 5.49073792 C-8.78049142 -0.02340105 -5.85936246 -0.03453455 0 0 Z M1.625 29.375 C0.14 31.85 0.14 31.85 -1.375 34.375 C-0.055 35.365 1.265 36.355 2.625 37.375 C3.615 36.385 4.605 35.395 5.625 34.375 C4.3160428 31.25302522 4.3160428 31.25302522 1.625 29.375 Z " fill="#000000" transform="translate(721.375,139.625)"/>
<path d="M0 0 C7.92 0 15.84 0 24 0 C24 19.47 24 38.94 24 59 C16.74 59 9.48 59 2 59 C0 57 0 57 -0.24050903 54.59555054 C-0.23606781 53.58739288 -0.23162659 52.57923523 -0.22705078 51.54052734 C-0.22689972 50.39949554 -0.22674866 49.25846375 -0.22659302 48.08285522 C-0.21627045 46.84637238 -0.20594788 45.60988953 -0.1953125 44.3359375 C-0.1924826 43.07359283 -0.18965271 41.81124817 -0.18673706 40.51065063 C-0.17742131 37.15353056 -0.15944835 33.79668088 -0.1373291 30.43963623 C-0.1168755 27.01446878 -0.1077364 23.58927341 -0.09765625 20.1640625 C-0.07556455 13.44262364 -0.04101847 6.72134894 0 0 Z " fill="#000000" transform="translate(664,142)"/>
<path d="M0 0 C3.62493334 -0.05787784 7.24974857 -0.0935542 10.875 -0.125 C11.90753906 -0.14175781 12.94007813 -0.15851563 14.00390625 -0.17578125 C14.99003906 -0.18222656 15.97617187 -0.18867188 16.9921875 -0.1953125 C18.35899658 -0.21102295 18.35899658 -0.21102295 19.75341797 -0.22705078 C22 0 22 0 24 2 C24.25396729 4.27037048 24.25396729 4.27037048 24.25878906 7.13647461 C24.26509338 8.20776108 24.27139771 9.27904755 24.27789307 10.38279724 C24.2738446 11.54424759 24.26979614 12.70569794 24.265625 13.90234375 C24.26753845 15.09098526 24.2694519 16.27962677 24.27142334 17.50428772 C24.27278641 20.02198498 24.26908154 22.53968923 24.26074219 25.05737305 C24.25005408 28.91796633 24.26062884 32.77809324 24.2734375 36.63867188 C24.27211574 39.0807302 24.26955301 41.52278823 24.265625 43.96484375 C24.26967346 45.12426987 24.27372192 46.28369598 24.27789307 47.47825623 C24.27158875 48.55269485 24.26528442 49.62713348 24.25878906 50.73413086 C24.25640228 52.15404579 24.25640228 52.15404579 24.25396729 53.60264587 C24 56 24 56 22 59 C19.86108398 59.35644531 19.86108398 59.35644531 17.24609375 59.328125 C15.84133789 59.32039063 15.84133789 59.32039063 14.40820312 59.3125 C13.42787109 59.291875 12.44753906 59.27125 11.4375 59.25 C9.96120117 59.24226563 9.96120117 59.24226563 8.45507812 59.234375 C1.15386542 59.15386542 1.15386542 59.15386542 0 58 C-0.09376053 56.18944975 -0.1174411 54.37522799 -0.11352539 52.56225586 C-0.11344986 51.40112778 -0.11337433 50.23999969 -0.11329651 49.04368591 C-0.10813522 47.780168 -0.10297394 46.51665009 -0.09765625 45.21484375 C-0.0962413 43.92888809 -0.09482635 42.64293243 -0.09336853 41.31800842 C-0.08954418 37.89356557 -0.07971462 34.46916491 -0.06866455 31.04473877 C-0.05844864 27.55261811 -0.05387053 24.06049066 -0.04882812 20.56835938 C-0.03809227 13.71222222 -0.02101684 6.85611313 0 0 Z " fill="#000000" transform="translate(569,142)"/>
</svg>
