<?xml version="1.0" encoding="UTF-8"?>
<svg version="1.1" xmlns="http://www.w3.org/2000/svg" width="426" height="101">
<path d="M0 0 C140.58 0 281.16 0 426 0 C426 33.33 426 66.66 426 101 C285.42 101 144.84 101 0 101 C0 67.67 0 34.34 0 0 Z " fill="#33DFC1" transform="translate(0,0)"/>
<path d="M0 0 C0 0.66 0 1.32 0 2 C0.57105469 2.09410156 1.14210938 2.18820313 1.73046875 2.28515625 C9.66006147 4.78277324 16.21963958 13.97626217 20 21 C23.50077313 30.4708416 22.86535703 42.20687558 21 52 C20.34 52 19.68 52 19 52 C18.9071875 53.2375 18.9071875 53.2375 18.8125 54.5 C16.87240378 62.85733756 11.84071122 67.33722332 5.109375 72.3359375 C2.90766597 73.83030695 2.90766597 73.83030695 2 76 C1.01 76 0.02 76 -1 76 C-1 76.66 -1 77.32 -1 78 C-14.21870615 81.13664214 -27.42311812 81.71486838 -40 76 C-41.485 75.01 -41.485 75.01 -43 74 C-43 73.34 -43 72.68 -43 72 C-44.051875 71.7215625 -44.051875 71.7215625 -45.125 71.4375 C-49.04135028 69.47932486 -51.5338864 66.59323769 -54 63 C-54 62.34 -54 61.68 -54 61 C-54.66 61 -55.32 61 -56 61 C-60.70132706 51.4065171 -62.3529201 43.63802012 -62 33 C-61.98324219 32.31808594 -61.96648437 31.63617188 -61.94921875 30.93359375 C-61.33944081 22.30959145 -56.43737859 13.70113881 -50 8 C-49.34 8 -48.68 8 -48 8 C-48 7.34 -48 6.68 -48 6 C-43.32683648 2.46663246 -38.00108703 -1 -32 -1 C-32 -1.66 -32 -2.32 -32 -3 C-20.72271635 -4.43203602 -10.50480356 -4.93082616 0 0 Z " fill="#010504" transform="translate(264,19)"/>
<path d="M0 0 C0.71994141 -0.00386719 1.43988281 -0.00773438 2.18164062 -0.01171875 C5.36458639 -0.00580799 7.89697862 0.11149287 10.9375 1.125 C10.9375 1.785 10.9375 2.445 10.9375 3.125 C11.55625 3.3725 12.175 3.62 12.8125 3.875 C15.28818687 5.33128639 15.88875002 6.50312506 16.9375 9.125 C14.1432258 12.07451165 11.15303077 14.6463617 7.9375 17.125 C6.9475 17.125 5.9575 17.125 4.9375 17.125 C4.9375 17.785 4.9375 18.445 4.9375 19.125 C2.8929346 18.61385865 0.84986597 18.10180276 -1.1875 17.5625 C-3.06621953 17.04925679 -3.06621953 17.04925679 -5.0625 17.125 C-5.0625 18.775 -5.0625 20.425 -5.0625 22.125 C-2.7525 22.125 -0.4425 22.125 1.9375 22.125 C1.9375 22.785 1.9375 23.445 1.9375 24.125 C2.9275 24.125 3.9175 24.125 4.9375 24.125 C4.9375 24.785 4.9375 25.445 4.9375 26.125 C5.55141602 26.22425781 6.16533203 26.32351562 6.79785156 26.42578125 C8.9375 27.125 8.9375 27.125 11.171875 30.3125 C13.91581336 36.32661148 13.3652665 42.65019716 13.1875 49.125 C13.16945313 50.37667969 13.15140625 51.62835938 13.1328125 52.91796875 C13.08594512 55.98778242 13.0203431 59.05598174 12.9375 62.125 C10.9575 63.115 10.9575 63.115 8.9375 64.125 C12.2375 64.455 15.5375 64.785 18.9375 65.125 C18.9375 74.035 18.9375 82.945 18.9375 92.125 C15.6375 92.125 12.3375 92.125 8.9375 92.125 C8.4425 83.215 8.4425 83.215 7.9375 74.125 C7.6075 77.755 7.2775 81.385 6.9375 85.125 C6.2775 85.125 5.6175 85.125 4.9375 85.125 C4.9375 86.115 4.9375 87.105 4.9375 88.125 C0.71527778 91.125 0.71527778 91.125 -2.0625 91.125 C-2.7225 92.775 -3.3825 94.425 -4.0625 96.125 C-18.9125 96.125 -33.7625 96.125 -49.0625 96.125 C-49.7225 94.805 -50.3825 93.485 -51.0625 92.125 C-52.0525 92.62 -52.0525 92.62 -53.0625 93.125 C-56.6925 93.125 -60.3225 93.125 -64.0625 93.125 C-64.0625 83.885 -64.0625 74.645 -64.0625 65.125 C-54.0625 65.125 -54.0625 65.125 -52.0625 66.125 C-51.4296875 68.19140625 -51.4296875 68.19140625 -50.9375 70.6875 C-50.76992188 71.51378906 -50.60234375 72.34007813 -50.4296875 73.19140625 C-50.30851562 73.82949219 -50.18734375 74.46757813 -50.0625 75.125 C-49.4025 75.125 -48.7425 75.125 -48.0625 75.125 C-47.93875 74.2175 -47.815 73.31 -47.6875 72.375 C-47.0625 69.125 -47.0625 69.125 -45.0625 65.125 C-31.8625 64.795 -18.6625 64.465 -5.0625 64.125 C-11.3325 63.795 -17.6025 63.465 -24.0625 63.125 C-24.0625 54.545 -24.0625 45.965 -24.0625 37.125 C-25.0525 37.62 -25.0525 37.62 -26.0625 38.125 C-26.3925 46.045 -26.7225 53.965 -27.0625 62.125 C-32.0125 62.125 -36.9625 62.125 -42.0625 62.125 C-42.15469952 58.1040764 -42.23421538 54.08586976 -42.28222656 50.06445312 C-42.30225319 48.69876632 -42.32948332 47.33316431 -42.36425781 45.96777344 C-42.41316432 43.99712898 -42.43341347 42.02584017 -42.453125 40.0546875 C-42.4845459 38.27940674 -42.4845459 38.27940674 -42.51660156 36.46826172 C-41.84171835 31.49952477 -39.03053948 27.2304222 -35.0625 24.125 C-34.0725 24.125 -33.0825 24.125 -32.0625 24.125 C-32.0625 23.465 -32.0625 22.805 -32.0625 22.125 C-29.4225 22.125 -26.7825 22.125 -24.0625 22.125 C-23.7325 19.155 -23.4025 16.185 -23.0625 13.125 C-22.4025 13.125 -21.7425 13.125 -21.0625 13.125 C-20.7325 11.475 -20.4025 9.825 -20.0625 8.125 C-19.4025 8.125 -18.7425 8.125 -18.0625 8.125 C-18.0625 7.465 -18.0625 6.805 -18.0625 6.125 C-12.05774755 0.52966249 -8.20152589 -0.04429267 0 0 Z " fill="#010706" transform="translate(370.0625,4.875)"/>
<path d="M0 0 C18.15 0 36.3 0 55 0 C55 33.33 55 66.66 55 101 C35.2 101 15.4 101 -5 101 C-5 100.67 -5 100.34 -5 100 C-7.31 99.67 -9.62 99.34 -12 99 C-12 98.67 -12 98.34 -12 98 C-9.03 98 -6.06 98 -3 98 C-3 97.34 -3 96.68 -3 96 C1.38461538 93 1.38461538 93 4 93 C4 92.01 4 91.02 4 90 C4.66 90 5.32 90 6 90 C6 86.04 6 82.08 6 78 C6.66 78.33 7.32 78.66 8 79 C8 84.94 8 90.88 8 97 C11.3 97 14.6 97 18 97 C18 88.09 18 79.18 18 70 C14.7 70 11.4 70 8 70 C5.78945993 69.86573726 3.58009356 69.70512498 1.375 69.5 C0.35148437 69.4071875 -0.67203125 69.314375 -1.7265625 69.21875 C-2.47679687 69.1465625 -3.22703125 69.074375 -4 69 C-4 68.67 -4 68.34 -4 68 C0.95 67.67 5.9 67.34 11 67 C11.10835025 62.66598983 11.18750156 58.33471327 11.25 54 C11.28351563 52.77925781 11.31703125 51.55851562 11.3515625 50.30078125 C11.42970282 43.07280186 11.12287868 38.05084353 7 32 C6.01 31.67 5.02 31.34 4 31 C4 30.34 4 29.68 4 29 C3.01 29 2.02 29 1 29 C1 28.34 1 27.68 1 27 C-1.31 27 -3.62 27 -6 27 C-6 25.35 -6 23.7 -6 22 C-2.61608307 20.93648325 -1.4195366 20.78557018 1.8125 22.4375 C2.534375 22.953125 3.25625 23.46875 4 24 C4 23.34 4 22.68 4 22 C5.63790712 20.95355934 7.31008021 19.9601817 9 19 C9.721875 18.443125 10.44375 17.88625 11.1875 17.3125 C13 16 13 16 15 16 C14.65221564 12.78299472 14.49927596 11.40849852 11.9375 9.3125 C11.298125 8.879375 10.65875 8.44625 10 8 C10 7.34 10 6.68 10 6 C3.07 6 -3.86 6 -11 6 C-10.67 5.34 -10.34 4.68 -10 4 C-7.93359375 3.5859375 -7.93359375 3.5859375 -5.4375 3.375 C-4.61121094 3.30023438 -3.78492188 3.22546875 -2.93359375 3.1484375 C-1.97646484 3.07496094 -1.97646484 3.07496094 -1 3 C-0.67 2.01 -0.34 1.02 0 0 Z " fill="#33E1C2" transform="translate(371,0)"/>
<path d="M0 0 C1.62215675 0.00333092 1.62215675 0.00333092 3.27708435 0.00672913 C4.49827469 0.00680466 5.71946503 0.00688019 6.97766113 0.00695801 C8.32022644 0.0120654 9.66279134 0.01728141 11.00535583 0.02259827 C12.37156116 0.02446252 13.73776716 0.02588639 15.10397339 0.02688599 C18.70596654 0.03071058 22.30791959 0.04054035 25.90989685 0.05158997 C29.58298703 0.06180536 33.25608368 0.06638388 36.92918396 0.07142639 C44.14079081 0.08216268 51.35236459 0.09923838 58.56394958 0.12025452 C58.23394958 2.10025452 57.90394958 4.08025452 57.56394958 6.12025452 C56.90394958 6.12025452 56.24394958 6.12025452 55.56394958 6.12025452 C55.37832458 7.45056702 55.37832458 7.45056702 55.18894958 8.80775452 C54.61982222 11.82412954 53.79780523 14.32351506 52.56394958 17.12025452 C51.90394958 17.12025452 51.24394958 17.12025452 50.56394958 17.12025452 C50.48144958 18.27525452 50.39894958 19.43025452 50.31394958 20.62025452 C49.82101657 24.70144988 48.47478259 27.7818697 46.50144958 31.35853577 C45.42153548 33.26998601 45.42153548 33.26998601 44.56394958 36.12025452 C43.90394958 36.12025452 43.24394958 36.12025452 42.56394958 36.12025452 C42.23394958 38.10025452 41.90394958 40.08025452 41.56394958 42.12025452 C40.90394958 42.12025452 40.24394958 42.12025452 39.56394958 42.12025452 C39.23394958 44.76025452 38.90394958 47.40025452 38.56394958 50.12025452 C37.90394958 50.12025452 37.24394958 50.12025452 36.56394958 50.12025452 C36.23394958 52.43025452 35.90394958 54.74025452 35.56394958 57.12025452 C43.48394958 57.12025452 51.40394958 57.12025452 59.56394958 57.12025452 C59.56394958 65.04025452 59.56394958 72.96025452 59.56394958 81.12025452 C39.43394958 81.12025452 19.30394958 81.12025452 -1.43605042 81.12025452 C-1.10605042 79.47025452 -0.77605042 77.82025452 -0.43605042 76.12025452 C0.22394958 76.12025452 0.88394958 76.12025452 1.56394958 76.12025452 C1.89394958 73.48025452 2.22394958 70.84025452 2.56394958 68.12025452 C3.22394958 68.12025452 3.88394958 68.12025452 4.56394958 68.12025452 C4.68769958 67.41900452 4.81144958 66.71775452 4.93894958 65.99525452 C5.60233304 62.94369064 6.53606914 60.06684514 7.56394958 57.12025452 C8.22394958 57.12025452 8.88394958 57.12025452 9.56394958 57.12025452 C9.89394958 54.81025452 10.22394958 52.50025452 10.56394958 50.12025452 C11.22394958 50.12025452 11.88394958 50.12025452 12.56394958 50.12025452 C12.68769958 49.43962952 12.81144958 48.75900452 12.93894958 48.05775452 C13.65495835 44.69251332 14.59340083 41.42012027 15.56394958 38.12025452 C16.22394958 38.12025452 16.88394958 38.12025452 17.56394958 38.12025452 C17.89394958 35.81025452 18.22394958 33.50025452 18.56394958 31.12025452 C19.22394958 31.12025452 19.88394958 31.12025452 20.56394958 31.12025452 C20.56394958 29.80025452 20.56394958 28.48025452 20.56394958 27.12025452 C21.22394958 27.12025452 21.88394958 27.12025452 22.56394958 27.12025452 C22.56394958 25.80025452 22.56394958 24.48025452 22.56394958 23.12025452 C13.98394958 23.12025452 5.40394958 23.12025452 -3.43605042 23.12025452 C-3.45667542 19.51087952 -3.47730042 15.90150452 -3.49855042 12.18275452 C-3.50765442 11.04330383 -3.51675842 9.90385315 -3.52613831 8.72987366 C-3.52863586 7.8390509 -3.53113342 6.94822815 -3.53370667 6.03041077 C-3.53894348 5.1139679 -3.5441803 4.19752502 -3.54957581 3.25331116 C-3.38598056 0.17947967 -3.08574408 0.15232635 0 0 Z " fill="#020907" transform="translate(99.43605041503906,16.879745483398438)"/>
<path d="M0 0 C0 0.66 0 1.32 0 2 C0.721875 2.226875 1.44375 2.45375 2.1875 2.6875 C5.58457087 4.27279974 7.5749552 6.15923323 10 9 C10 9.99 10 10.98 10 12 C8.36935236 13.05771739 6.69719127 14.05273046 5 15 C4.46375 15.556875 3.9275 16.11375 3.375 16.6875 C2 18 2 18 -1 18 C-1 18.66 -1 19.32 -1 20 C-2.96147874 21.38938077 -4.96166576 22.7260411 -7 24 C-7.515625 23.67 -8.03125 23.34 -8.5625 23 C-11.78026512 21.67989123 -14.5570528 21.86757895 -18 22 C-19.4807848 24.9615696 -19.35314037 27.83506295 -19.5625 31.125 C-19.64628906 32.40632813 -19.73007812 33.68765625 -19.81640625 35.0078125 C-19.90728516 36.48894531 -19.90728516 36.48894531 -20 38 C-17.36 38 -14.72 38 -12 38 C-12 45.26 -12 52.52 -12 60 C-14.64 60 -17.28 60 -20 60 C-20 66.93 -20 73.86 -20 81 C-27.92 81 -35.84 81 -44 81 C-44.02260223 73.37644243 -44.0409448 65.75289736 -44.05181217 58.12931442 C-44.05702825 54.58928939 -44.06410276 51.04928849 -44.07543945 47.50927734 C-44.08839423 43.43847422 -44.09323876 39.36769641 -44.09765625 35.296875 C-44.10281754 34.02696716 -44.10797882 32.75705933 -44.11329651 31.44866943 C-44.11337204 30.26774719 -44.11344757 29.08682495 -44.11352539 27.87011719 C-44.115746 26.83087097 -44.11796661 25.79162476 -44.12025452 24.72088623 C-44.01374985 22.31110502 -43.69407081 20.29963193 -43 18 C-42.34 18 -41.68 18 -41 18 C-40.87625 17.071875 -40.7525 16.14375 -40.625 15.1875 C-40 12 -40 12 -38 9 C-37.34 9 -36.68 9 -36 9 C-35.7525 8.401875 -35.505 7.80375 -35.25 7.1875 C-33.81927475 4.68373081 -32.4308418 3.51927612 -30 2 C-29.34 2 -28.68 2 -28 2 C-28 1.34 -28 0.68 -28 0 C-18.05466218 -2.32542346 -9.89952694 -2.62115134 0 0 Z " fill="#010706" transform="translate(49,17)"/>
<path d="M0 0 C0.99 1.98 0.99 1.98 2 4 C2.495 4.495 2.495 4.495 3 5 C3.08758003 6.99964982 3.10696576 9.0023611 3.09765625 11.00390625 C3.09282227 12.82631836 3.09282227 12.82631836 3.08789062 14.68554688 C3.07532227 16.60463867 3.07532227 16.60463867 3.0625 18.5625 C3.05798828 19.84576172 3.05347656 21.12902344 3.04882812 22.45117188 C3.03699545 25.63416022 3.02051068 28.81705762 3 32 C1.02 32.99 1.02 32.99 -1 34 C2.3 34.33 5.6 34.66 9 35 C9 43.91 9 52.82 9 62 C5.7 62 2.4 62 -1 62 C-1.495 53.09 -1.495 53.09 -2 44 C-2.33 47.63 -2.66 51.26 -3 55 C-3.66 55 -4.32 55 -5 55 C-5 55.99 -5 56.98 -5 58 C-9.22222222 61 -9.22222222 61 -12 61 C-12.66 62.65 -13.32 64.3 -14 66 C-28.85 66 -43.7 66 -59 66 C-59.66 64.68 -60.32 63.36 -61 62 C-61.99 62.495 -61.99 62.495 -63 63 C-66.63 63 -70.26 63 -74 63 C-74 53.76 -74 44.52 -74 35 C-64 35 -64 35 -62 36 C-61.3671875 38.06640625 -61.3671875 38.06640625 -60.875 40.5625 C-60.62363281 41.80193359 -60.62363281 41.80193359 -60.3671875 43.06640625 C-60.18542969 44.02353516 -60.18542969 44.02353516 -60 45 C-59.34 45 -58.68 45 -58 45 C-57.87625 44.0925 -57.7525 43.185 -57.625 42.25 C-57 39 -57 39 -55 35 C-41.8 34.67 -28.6 34.34 -15 34 C-21.27 33.67 -27.54 33.34 -34 33 C-34 32.67 -34 32.34 -34 32 C-27.73 32 -21.46 32 -15 32 C-15 23.75 -15 15.5 -15 7 C-14.34 7 -13.68 7 -13 7 C-13 15.25 -13 23.5 -13 32 C-8.38 32 -3.76 32 1 32 C0.67 21.44 0.34 10.88 0 0 Z " fill="#2BBFA5" transform="translate(380,35)"/>
<path d="M0 0 C0.33 0 0.66 0 1 0 C1.33 26.4 1.66 52.8 2 80 C9.92 80.33 17.84 80.66 26 81 C25.505 82.485 25.505 82.485 25 84 C-1.73 84 -28.46 84 -56 84 C-56.33 83.01 -56.66 82.02 -57 81 C-49.08 81 -41.16 81 -33 81 C-33 74.07 -33 67.14 -33 60 C-30.36 60 -27.72 60 -25 60 C-25 52.74 -25 45.48 -25 38 C-27.64 38 -30.28 38 -33 38 C-33.05398987 35.72942623 -33.09278742 33.45848712 -33.125 31.1875 C-33.14820312 29.92292969 -33.17140625 28.65835938 -33.1953125 27.35546875 C-33 24 -33 24 -31 21 C-24.92328856 20.43734153 -24.92328856 20.43734153 -22.08984375 22.1640625 C-19.9488897 23.28576643 -19.9488897 23.28576643 -17.52734375 22.13671875 C-16.24537109 21.41935547 -16.24537109 21.41935547 -14.9375 20.6875 C-12.2584271 19.21703141 -9.90692119 17.96897373 -7 17 C-6.505 15.515 -6.505 15.515 -6 14 C-5.175 13.67 -4.35 13.34 -3.5 13 C-0.75854478 11.24187014 -0.75854478 11.24187014 -0.44921875 8.36328125 C-0.20964541 5.57064273 -0.05233087 2.80208019 0 0 Z " fill="#33E2C3" transform="translate(62,17)"/>
<path d="M0 0 C7.92 0 15.84 0 24 0 C24 26.73 24 53.46 24 81 C16.08 81 8.16 81 0 81 C0 54.27 0 27.54 0 0 Z " fill="#010505" transform="translate(64,17)"/>
<path d="M0 0 C7.59 0 15.18 0 23 0 C23 26.07 23 52.14 23 79 C15.41 79 7.82 79 0 79 C0 52.93 0 26.86 0 0 Z " fill="#000000" transform="translate(167,18)"/>
<path d="M0 0 C0 0.66 0 1.32 0 2 C0.61875 2.28875 1.2375 2.5775 1.875 2.875 C4 4 4 4 6 6 C6 6.99 6 7.98 6 9 C6.66 9 7.32 9 8 9 C9.85719577 14.80373678 9.47823389 20.48029725 7 26 C2.08065779 33.63978074 2.08065779 33.63978074 -2 35 C-4.1649902 35.09485782 -6.33293823 35.12988077 -8.5 35.125 C-9.6446875 35.12757812 -10.789375 35.13015625 -11.96875 35.1328125 C-15 35 -15 35 -18 34 C-18 33.34 -18 32.68 -18 32 C-18.5775 31.79375 -19.155 31.5875 -19.75 31.375 C-23.01471209 29.37989816 -24.26414622 27.40971278 -26 24 C-27.06806822 17.75590884 -25.74316865 11.65092742 -23 6 C-16.99326615 -1.63017543 -9.02841744 -2.18870726 0 0 Z " fill="#33DFC0" transform="translate(253,40)"/>
<path d="M0 0 C3.3 0 6.6 0 10 0 C10 8.91 10 17.82 10 27 C6.7 27 3.4 27 0 27 C-0.33 24.69 -0.66 22.38 -1 20 C-1.66 21.98 -2.32 23.96 -3 26 C-3.99 25.67 -4.98 25.34 -6 25 C-6 23.68 -6 22.36 -6 21 C-6.66 21 -7.32 21 -8 21 C-8.33 22.65 -8.66 24.3 -9 26 C-11.97 26 -14.94 26 -18 26 C-18 17.75 -18 9.5 -18 1 C-10 1 -10 1 -8 2 C-5.9904432 4.93704456 -5 6.39222485 -5 10 C-4.34 10 -3.68 10 -3 10 C-2.87625 9.0925 -2.7525 8.185 -2.625 7.25 C-2 4 -2 4 0 0 Z " fill="#020C0B" transform="translate(325,70)"/>
<path d="M0 0 C17.15169542 -0.32361689 17.15169542 -0.32361689 22.375 3.9375 C24.80494025 8.51700278 24.46223838 12.91537783 24 18 C23.97292969 18.68964844 23.94585937 19.37929687 23.91796875 20.08984375 C22.31711603 23.42097984 19.32359243 24.77670632 16 26 C12.98837392 26.43691985 10.09667193 26.38412672 7.0625 26.25 C4.401875 26.1675 1.74125 26.085 -1 26 C-0.67 17.42 -0.34 8.84 0 0 Z " fill="#030F0D" transform="translate(352,71)"/>
<path d="M0 0 C0.66 1.32 1.32 2.64 2 4 C2.495 4.495 2.495 4.495 3 5 C3.08758003 6.99964982 3.10696576 9.0023611 3.09765625 11.00390625 C3.09443359 12.21884766 3.09121094 13.43378906 3.08789062 14.68554688 C3.07532227 16.60463867 3.07532227 16.60463867 3.0625 18.5625 C3.05798828 19.84576172 3.05347656 21.12902344 3.04882812 22.45117188 C3.03699545 25.63416022 3.02051068 28.81705762 3 32 C1.68 32.66 0.36 33.32 -1 34 C2.3 34.33 5.6 34.66 9 35 C9 43.91 9 52.82 9 62 C5.7 62 2.4 62 -1 62 C-1.495 53.09 -1.495 53.09 -2 44 C-2.33 47.63 -2.66 51.26 -3 55 C-3.66 54.67 -4.32 54.34 -5 54 C-4.95359375 53.26394531 -4.9071875 52.52789062 -4.859375 51.76953125 C-4.58319624 45.57967675 -4.58319624 45.57967675 -6.6875 39.875 C-10.89475019 36.46371606 -16.0553569 36.78142525 -21.3125 36.4375 C-22.56675781 36.35371094 -23.82101562 36.26992187 -25.11328125 36.18359375 C-26.54220703 36.09271484 -26.54220703 36.09271484 -28 36 C-28 37.98 -28 39.96 -28 42 C-28.33 42 -28.66 42 -29 42 C-29 39.69 -29 37.38 -29 35 C-24.38 34.67 -19.76 34.34 -15 34 C-21.27 33.67 -27.54 33.34 -34 33 C-34 32.67 -34 32.34 -34 32 C-27.73 32 -21.46 32 -15 32 C-15 23.75 -15 15.5 -15 7 C-14.34 7 -13.68 7 -13 7 C-13 15.25 -13 23.5 -13 32 C-8.38 32 -3.76 32 1 32 C0.67 21.44 0.34 10.88 0 0 Z " fill="#229580" transform="translate(380,35)"/>
<path d="M0 0 C2.97 0 5.94 0 9 0 C10.25664978 2.90600261 11 4.79604584 11 8 C11.66 8 12.32 8 13 8 C13 9.32 13 10.64 13 12 C13.66 12 14.32 12 15 12 C15.50692692 13.5811292 16.00526443 15.16501383 16.5 16.75 C16.7784375 17.63171875 17.056875 18.5134375 17.34375 19.421875 C18 22 18 22 18 26 C14.37 26 10.74 26 7 26 C7 25.34 7 24.68 7 24 C2.38 24.33 -2.24 24.66 -7 25 C-7 17.125 -7 17.125 -6 13.0625 C-5.814375 12.29035156 -5.62875 11.51820312 -5.4375 10.72265625 C-5.293125 10.15417969 -5.14875 9.58570312 -5 9 C-4.34 9 -3.68 9 -3 9 C-2.814375 7.88625 -2.814375 7.88625 -2.625 6.75 C-2 4 -2 4 0 0 Z " fill="#04120F" transform="translate(400,71)"/>
<path d="M0 0 C3.3 0 6.6 0 10 0 C10 8.25 10 16.5 10 25 C6.7 25 3.4 25 0 25 C0 16.75 0 8.5 0 0 Z " fill="#020C0A" transform="translate(338,71)"/>
<path d="M0 0 C2.97 0 5.94 0 9 0 C9 8.25 9 16.5 9 25 C6.03 25 3.06 25 0 25 C0 16.75 0 8.5 0 0 Z " fill="#000201" transform="translate(380,71)"/>
<path d="M0 0 C7.07721931 -0.12109311 13.97195301 0.14626761 21 1 C21 1.33 21 1.66 21 2 C18.03 2 15.06 2 12 2 C12 10.25 12 18.5 12 27 C14.97 27 17.94 27 21 27 C21 27.33 21 27.66 21 28 C17.7 28 14.4 28 11 28 C10.67 22.06 10.34 16.12 10 10 C9.67 13.63 9.34 17.26 9 21 C8.34 20.67 7.68 20.34 7 20 C7.05800781 19.27554688 7.11601562 18.55109375 7.17578125 17.8046875 C7.60784547 11.11179863 7.60784547 11.11179863 4.625 5.375 C2.2513506 3.0138177 2.2513506 3.0138177 0 2 C0 1.34 0 0.68 0 0 Z " fill="#27AD96" transform="translate(368,69)"/>
<path d="M0 0 C0.83920486 0.0028299 1.67840973 0.00565979 2.54304504 0.00857544 C5.22285228 0.01976865 7.90232506 0.04487149 10.58203125 0.0703125 C12.39908371 0.08034342 14.21614142 0.08946907 16.03320312 0.09765625 C20.487108 0.11970516 24.94076292 0.15422899 29.39453125 0.1953125 C29.06453125 0.8553125 28.73453125 1.5153125 28.39453125 2.1953125 C19.15453125 2.1953125 9.91453125 2.1953125 0.39453125 2.1953125 C0.39453125 11.1053125 0.39453125 20.0153125 0.39453125 29.1953125 C0.06453125 29.1953125 -0.26546875 29.1953125 -0.60546875 29.1953125 C-0.60546875 20.2853125 -0.60546875 11.3753125 -0.60546875 2.1953125 C-4.23546875 2.1953125 -7.86546875 2.1953125 -11.60546875 2.1953125 C-7.72053713 -0.39464191 -4.49979639 -0.05694292 0 0 Z " fill="#38F5D3" transform="translate(336.60546875,67.8046875)"/>
<path d="M0 0 C2.67420119 1.0534732 3.59014593 2.38311578 5.0625 4.8125 C5.0625 5.4725 5.0625 6.1325 5.0625 6.8125 C5.7225 6.8125 6.3825 6.8125 7.0625 6.8125 C7.3925 7.8025 7.7225 8.7925 8.0625 9.8125 C7.4025 9.8125 6.7425 9.8125 6.0625 9.8125 C6.0625 9.1525 6.0625 8.4925 6.0625 7.8125 C5.0725 7.8125 4.0825 7.8125 3.0625 7.8125 C3.0625 7.1525 3.0625 6.4925 3.0625 5.8125 C0.7525 5.8125 -1.5575 5.8125 -3.9375 5.8125 C-3.9375 4.1625 -3.9375 2.5125 -3.9375 0.8125 C-1.9375 -0.1875 -1.9375 -0.1875 0 0 Z " fill="#2EC9AD" transform="translate(368.9375,21.1875)"/>
<path d="M0 0 C0.99 0 1.98 0 3 0 C3 0.66 3 1.32 3 2 C3.66 2 4.32 2 5 2 C5.125 5.375 5.125 5.375 5 9 C4.34 9.66 3.68 10.32 3 11 C2.01 11 1.02 11 0 11 C0 7.37 0 3.74 0 0 Z " fill="#2FCEB2" transform="translate(362,78)"/>
<path d="M0 0 C0.33 0 0.66 0 1 0 C1.33 7.26 1.66 14.52 2 22 C2.66 21.34 3.32 20.68 4 20 C4 21.65 4 23.3 4 25 C7.96 24.505 7.96 24.505 12 24 C12 24.66 12 25.32 12 26 C10.37509046 26.02698189 8.75005367 26.04638757 7.125 26.0625 C5.76761719 26.07990234 5.76761719 26.07990234 4.3828125 26.09765625 C2 26 2 26 0 25 C0 16.75 0 8.5 0 0 Z " fill="#1F8A77" transform="translate(389,71)"/>
<path d="M0 0 C0.33 0.66 0.66 1.32 1 2 C1.66 2 2.32 2 3 2 C3.12375 2.639375 3.2475 3.27875 3.375 3.9375 C3.58125 4.618125 3.7875 5.29875 4 6 C4.66 6.33 5.32 6.66 6 7 C6.33 6.01 6.66 5.02 7 4 C6.67 5.65 6.34 7.3 6 9 C5.360625 8.814375 4.72125 8.62875 4.0625 8.4375 C3.0415625 8.2209375 3.0415625 8.2209375 2 8 C1.67 8.33 1.34 8.66 1 9 C-0.85287502 9.07226502 -2.70833878 9.0838122 -4.5625 9.0625 C-5.57441406 9.05347656 -6.58632813 9.04445313 -7.62890625 9.03515625 C-8.41136719 9.02355469 -9.19382812 9.01195313 -10 9 C-10 8.67 -10 8.34 -10 8 C-6.7 8 -3.4 8 0 8 C0 5.36 0 2.72 0 0 Z " fill="#26AA93" transform="translate(316,89)"/>
<path d="M0 0 C0 3 0 3 -2.1875 5.48046875 C-3.115625 6.37378906 -4.04375 7.26710938 -5 8.1875 C-5.928125 9.08855469 -6.85625 9.98960938 -7.8125 10.91796875 C-8.534375 11.60503906 -9.25625 12.29210938 -10 13 C-10 8.68381834 -7.86729652 7.07210341 -5 4 C-4.34 4 -3.68 4 -3 4 C-3 3.34 -3 2.68 -3 2 C-2.01 1.34 -1.02 0.68 0 0 Z " fill="#0B332C" transform="translate(219,23)"/>
<path d="M0 0 C0.66 0 1.32 0 2 0 C0.44499019 3.81684226 -2.03595495 6.19195732 -5 9 C-5.66 8.67 -6.32 8.34 -7 8 C-6.67 7.34 -6.34 6.68 -6 6 C-5.34 6 -4.68 6 -4 6 C-3.71125 5.38125 -3.4225 4.7625 -3.125 4.125 C-2 2 -2 2 0 0 Z " fill="#0D3D34" transform="translate(17,20)"/>
<path d="M0 0 C1.35715268 2.71430536 0.77445827 4.11338282 0 7 C-0.99 8.485 -0.99 8.485 -2 10 C-2.66 9.67 -3.32 9.34 -4 9 C-3.67 7.68 -3.34 6.36 -3 5 C-2.34 5 -1.68 5 -1 5 C-0.67 3.35 -0.34 1.7 0 0 Z " fill="#26A790" transform="translate(153,29)"/>
<path d="M0 0 C-1.45255699 3.82946843 -3.42895561 5.12050295 -7 7 C-3.86206897 0 -3.86206897 0 0 0 Z " fill="#0B312A" transform="translate(337,29)"/>
</svg>
