<?xml version="1.0" encoding="UTF-8"?>
<svg version="1.1" xmlns="http://www.w3.org/2000/svg" width="315" height="300">
<path d="M0 0 C3.5771404 3.10870535 6.99412594 6.36704559 10.40234375 9.65917969 C11.32789063 10.5215625 12.2534375 11.38394531 13.20703125 12.27246094 C38.82816245 36.76858496 54.59532753 72.72218966 55.60546875 108.12011719 C56.15634527 149.76918935 42.29191504 186.99449618 13.32983398 217.13427734 C-16.01622669 246.95084891 -56.39063987 264.36405763 -98.29833984 264.90063477 C-142.25282832 265.02133201 -182.84892173 250.32655404 -214.59765625 219.65917969 C-215.52320313 218.79679688 -216.44875 217.93441406 -217.40234375 217.04589844 C-243.02347495 192.54977442 -258.79064003 156.59616972 -259.80078125 121.19824219 C-260.35165777 79.54917003 -246.48722754 42.3238632 -217.52514648 12.18408203 C-160.85981765 -45.38977265 -62.7196402 -52.63695965 0 0 Z " fill="#33E1C2" transform="translate(259.59765625,35.3408203125)"/>
<path d="M0 0 C19.17578364 -1.14581431 35.74737531 3.89854694 50.26708984 16.75585938 C53.20716688 19.48524685 56.06843183 22.28141453 58.89208984 25.13085938 C57.50665334 29.28716889 54.59133303 30.63454299 51.07958984 32.94335938 C49.62966003 33.91756233 48.18047793 34.89287879 46.73193359 35.86914062 C45.95446777 36.39072754 45.17700195 36.91231445 44.37597656 37.44970703 C39.92932981 40.45930105 35.53775467 43.54750133 31.14208984 46.63085938 C30.28510498 47.23003174 29.42812012 47.8292041 28.54516602 48.4465332 C24.95509175 50.96047958 21.38754985 53.48617744 17.89208984 56.13085938 C14.51061326 54.68165512 12.43471899 52.75824283 9.89208984 50.13085938 C6.43193849 48.4007837 2.6753643 48.64733207 -1.10791016 49.13085938 C-4.60681019 51.24477815 -5.81369702 52.24821997 -7.10791016 56.13085938 C-7.33509511 58.69720798 -7.52399199 61.24764045 -7.67041016 63.81835938 C-7.73518555 64.87120117 -7.73518555 64.87120117 -7.80126953 65.9453125 C-7.90708375 67.67361144 -8.00797596 69.40221047 -8.10791016 71.13085938 C-7.11791016 70.80085938 -6.12791016 70.47085938 -5.10791016 70.13085938 C3.34598609 69.69023206 11.7297857 69.69259919 19.89208984 72.13085938 C20.82279297 72.40285156 21.75349609 72.67484375 22.71240234 72.95507812 C34.4212288 77.06692449 43.85547099 85.99366998 49.84130859 96.77929688 C55.65284436 109.78503862 55.17030352 123.84396764 55.08740234 137.77539062 C55.0836637 139.64010973 55.08082076 141.50483082 55.0788269 143.36955261 C55.07125744 148.23399454 55.05166786 153.09831355 55.02941895 157.96270752 C55.00518073 163.8224763 54.99614764 169.68228661 54.98451233 175.54209137 C54.96523842 184.40509905 54.92686952 193.26783799 54.89208984 202.13085938 C38.39208984 202.13085938 21.89208984 202.13085938 4.89208984 202.13085938 C4.85341797 193.75453125 4.85341797 193.75453125 4.81396484 185.20898438 C4.78879996 181.67248001 4.76247 178.13606146 4.73193359 174.59960938 C4.6835699 168.98567368 4.63953635 163.37193661 4.62109375 157.7578125 C4.60595588 153.23181316 4.57156186 148.70633322 4.52378082 144.18056488 C4.50893729 142.45344302 4.50104713 140.72624702 4.50020599 138.99906158 C4.49784343 136.58051605 4.47082359 134.16341424 4.43798828 131.74511719 C4.44301865 131.03014069 4.44804901 130.31516418 4.45323181 129.57852173 C4.38284007 126.23013729 4.09464313 124.40464994 2.08062744 121.68231201 C-1.08662039 119.43705243 -3.32453989 119.64933952 -7.10791016 120.13085938 C-9.72384168 121.96201144 -10.07780471 123.04054304 -11.10791016 126.13085938 C-11.22720402 128.57829923 -11.29309723 130.99953808 -11.31323242 133.44799805 C-11.32313202 134.18970749 -11.33303162 134.93141693 -11.3432312 135.69560242 C-11.37481272 138.14664521 -11.39959037 140.59770738 -11.42431641 143.04882812 C-11.44488883 144.74848433 -11.46588538 146.44813544 -11.48728943 148.14778137 C-11.54248036 152.621001 -11.59190278 157.09426658 -11.64013672 161.56756592 C-11.69920625 166.93491389 -11.76541785 172.30217791 -11.83043671 177.66945648 C-11.92840877 185.82320616 -12.0172904 193.97700973 -12.10791016 202.13085938 C-28.60791016 202.13085938 -45.10791016 202.13085938 -62.10791016 202.13085938 C-62.13369141 196.54664063 -62.15947266 190.96242187 -62.18603516 185.20898438 C-62.21120004 181.67248001 -62.23753 178.13606146 -62.26806641 174.59960938 C-62.3164301 168.98567368 -62.36046365 163.37193661 -62.37890625 157.7578125 C-62.39404412 153.23181316 -62.42843814 148.70633322 -62.47621918 144.18056488 C-62.49106271 142.45344302 -62.49895287 140.72624702 -62.49979401 138.99906158 C-62.50215657 136.58051605 -62.52917641 134.16341424 -62.56201172 131.74511719 C-62.55698135 131.03014069 -62.55195099 130.31516418 -62.54676819 129.57852173 C-62.61715993 126.23013729 -62.90535687 124.40464994 -64.91937256 121.68231201 C-68.08662039 119.43705243 -70.32453989 119.64933952 -74.10791016 120.13085938 C-76.72384168 121.96201144 -77.07780471 123.04054304 -78.10791016 126.13085938 C-78.22720402 128.57829923 -78.29309723 130.99953808 -78.31323242 133.44799805 C-78.32313202 134.18970749 -78.33303162 134.93141693 -78.3432312 135.69560242 C-78.37481272 138.14664521 -78.39959037 140.59770738 -78.42431641 143.04882812 C-78.44488883 144.74848433 -78.46588538 146.44813544 -78.48728943 148.14778137 C-78.54248036 152.621001 -78.59190278 157.09426658 -78.64013672 161.56756592 C-78.69920625 166.93491389 -78.76541785 172.30217791 -78.83043671 177.66945648 C-78.92840877 185.82320616 -79.0172904 193.97700973 -79.10791016 202.13085938 C-95.60791016 202.13085938 -112.10791016 202.13085938 -129.10791016 202.13085938 C-129.3084542 180.52112421 -129.3084542 180.52112421 -129.35205078 171.2265625 C-129.38180515 164.91327595 -129.41679554 158.60035599 -129.48510742 152.28735352 C-129.53990239 147.19093401 -129.56942971 142.09490825 -129.58229637 136.99821663 C-129.59145179 135.06516393 -129.60932728 133.1321299 -129.63656044 131.19924736 C-129.88664263 112.69385845 -126.97438883 98.51309563 -113.72119141 84.63085938 C-108.36618145 79.51964109 -102.97014352 75.89090592 -96.10791016 73.13085938 C-95.35251953 72.81246094 -94.59712891 72.4940625 -93.81884766 72.16601562 C-84.03381973 68.61526134 -71.93733905 68.85438308 -62.10791016 72.13085938 C-62.15431641 71.23367187 -62.20072266 70.33648437 -62.24853516 69.41210938 C-62.80240184 50.26414694 -57.14366603 34.45214826 -44.10791016 20.13085938 C-37.46749812 13.31888654 -30.74760533 8.13268137 -22.10791016 4.13085938 C-21.43244141 3.8034375 -20.75697266 3.47601562 -20.06103516 3.13867188 C-13.5913387 0.33157217 -6.93264544 0.43037966 0 0 Z " fill="#000100" transform="translate(180.10791015625,24.869140625)"/>
</svg>
