<?xml version="1.0" encoding="UTF-8"?>
<svg version="1.1" xmlns="http://www.w3.org/2000/svg" width="450" height="490">
<path d="M0 0 C5.64434527 5.24251275 11.09642061 10.70267298 16.46728516 16.22460938 C17.86142588 17.61180486 19.34151323 18.91102438 20.82421875 20.203125 C22.9375 22.6875 22.9375 22.6875 23.4921875 25.7734375 C22.80601119 29.37827926 21.98731949 30.15581492 19.0625 32.3125 C18.14082031 32.99570313 17.21914063 33.67890625 16.26953125 34.3828125 C11.71719088 37.56597569 7.09310121 40.64445174 2.45410156 43.69946289 C-3.99784542 47.94925226 -10.35345155 52.32670024 -16.6875 56.75 C-17.66605957 57.43336426 -18.64461914 58.11672852 -19.65283203 58.82080078 C-20.61431152 59.49224121 -21.57579102 60.16368164 -22.56640625 60.85546875 C-27.23571391 64.11617644 -31.92467746 67.34673477 -36.625 70.5625 C-41.51307707 73.91192123 -46.36745673 77.3033702 -51.1875 80.75 C-51.75218994 81.15186523 -52.31687988 81.55373047 -52.89868164 81.96777344 C-55.90931994 84.11730444 -58.88650143 86.30227122 -61.8359375 88.53515625 C-62.45968262 88.99978271 -63.08342773 89.46440918 -63.72607422 89.94311523 C-64.91625062 90.83060519 -66.09821428 91.72926028 -67.27001953 92.64086914 C-69.87340896 94.56719086 -71.95758197 95.66593056 -75.140625 96.3203125 C-79.19835864 95.44149853 -80.8642834 93.0594173 -83.3125 89.9375 C-88.96478983 83.33883834 -93.61860118 80.26516862 -102.44921875 79.328125 C-110.14529027 79.02860222 -116.29022933 79.99794752 -123.0625 83.6875 C-123.71992188 84.038125 -124.37734375 84.38875 -125.0546875 84.75 C-130.59573662 88.17451104 -134.04057514 93.59391182 -135.61328125 99.89379883 C-136.14308073 103.18863331 -136.1922215 106.33034906 -136.1953125 109.66796875 C-136.19626923 110.32203201 -136.19722595 110.97609528 -136.19821167 111.64997864 C-136.19888889 113.02405901 -136.19706674 114.39814266 -136.19287109 115.7722168 C-136.18749025 117.87881583 -136.19284479 119.98520418 -136.19921875 122.09179688 C-136.19855839 123.42968797 -136.19727811 124.76757894 -136.1953125 126.10546875 C-136.19418457 127.32000732 -136.19305664 128.5345459 -136.19189453 129.78588867 C-136.26238556 132.62683144 -136.26238556 132.62683144 -135.0625 134.6875 C-131.27686732 135.85023004 -128.44272581 135.56941671 -124.609375 134.76953125 C-92.78203346 128.99291743 -60.30143853 137.34734661 -33.8671875 155.5078125 C-6.34255291 175.1455744 6.37127032 199.60945473 11.9730072 232.65109253 C12.56280097 236.20205226 13.13035618 239.75628241 13.6875 243.3125 C13.79450226 243.99495789 13.90150452 244.67741577 14.01174927 245.3805542 C15.97041936 257.99878902 17.08124675 270.45950461 17.48950195 283.22045898 C17.53154157 284.51976821 17.57358118 285.81907743 17.61689472 287.15775967 C18.07208551 302.05119581 18.1021711 316.94517694 18.10475707 331.84437871 C18.10548041 334.1980933 18.10763745 336.55180246 18.11025429 338.90551567 C18.11939633 347.14591709 18.12360095 355.38630266 18.12280273 363.62670898 C18.12219575 371.27304552 18.13289589 378.91931295 18.1485464 386.56563193 C18.16160913 393.18622098 18.1669876 399.80678724 18.16634732 406.42738909 C18.1660932 410.3590842 18.16890123 414.29071668 18.17952538 418.22239876 C18.18919196 421.89582336 18.18929565 425.56912481 18.18200874 429.24255371 C18.18046511 431.22729591 18.18880788 433.2120381 18.19744873 435.19676208 C18.191157 436.97211838 18.191157 436.97211838 18.18473816 438.78334045 C18.18528293 439.80904679 18.18582769 440.83475313 18.18638897 441.89154148 C17.91886253 444.89686886 17.32692712 447.01309181 15.9375 449.6875 C12.76603275 451.8018115 12.00851681 451.93809999 8.38293457 451.94146729 C7.44917496 451.94710693 6.51541534 451.95274658 5.55335999 451.95855713 C4.53092697 451.95450867 3.50849396 451.95046021 2.45507812 451.94628906 C0.83767982 451.95154602 0.83767982 451.95154602 -0.81239319 451.95690918 C-4.38541047 451.96572945 -7.95823061 451.9598762 -11.53125 451.953125 C-14.00842324 451.95447156 -16.48559622 451.95641202 -18.96276855 451.95892334 C-24.82400636 451.96225341 -30.68517232 451.95524206 -36.54639959 451.9446218 C-41.22318221 451.93711239 -45.89988067 451.93976809 -50.57666016 451.94824219 C-57.01862535 451.95981536 -63.46050905 451.96166231 -69.90248108 451.95513153 C-72.3617403 451.95379471 -74.82100298 451.95544389 -77.28025818 451.96009064 C-80.71362567 451.96515383 -84.14673027 451.95744832 -87.58007812 451.94628906 C-88.60251114 451.95033752 -89.62494415 451.95438599 -90.67835999 451.95855713 C-91.6121196 451.95291748 -92.54587921 451.94727783 -93.50793457 451.94146729 C-94.31982491 451.94071323 -95.13171524 451.93995918 -95.96820831 451.93918228 C-98.0625 451.6875 -98.0625 451.6875 -101.0625 449.6875 C-102.24721205 446.13336386 -102.19322346 443.30729157 -102.20053101 439.55380249 C-102.20335229 438.82254988 -102.20617357 438.09129728 -102.20908034 437.3378855 C-102.21743183 434.88068254 -102.21876508 432.4235246 -102.22021484 429.96630859 C-102.22488278 428.20709099 -102.23002631 426.4478746 -102.23561096 424.68865967 C-102.24689718 420.89581795 -102.25532895 417.10298412 -102.26173019 413.31013107 C-102.27240813 407.30890729 -102.29265355 401.30773993 -102.31484985 395.30654907 C-102.37677746 378.23971142 -102.43075277 361.17287668 -102.46386719 344.10595703 C-102.48222999 334.68332269 -102.51118859 325.26078249 -102.5518719 315.83821738 C-102.57291742 310.85300127 -102.58839566 305.8679037 -102.59067917 300.88264084 C-102.59283141 296.18926957 -102.60875957 291.49614491 -102.63506889 286.80284882 C-102.64224193 285.08442928 -102.64437257 283.3659798 -102.64096642 281.64754868 C-102.08809871 268.08502554 -102.08809871 268.08502554 -107.408041 256.12328148 C-113.09997634 251.01256627 -118.67545884 250.20931717 -126.0546875 250.390625 C-130.46871737 250.82629548 -133.73279272 251.67453982 -137.0625 254.6875 C-146.05041821 267.69814375 -145.2104325 283.90639314 -145.22021484 299.01342773 C-145.22489147 300.64548375 -145.23003641 302.27753848 -145.23561096 303.90959167 C-145.24682617 307.40493584 -145.25529124 310.90027181 -145.26173019 314.39562798 C-145.27246435 319.9210968 -145.29271852 325.44650562 -145.31484985 330.97193909 C-145.37660851 346.67714725 -145.43089647 362.3823494 -145.46386719 378.08764648 C-145.48218613 386.77597964 -145.51107497 395.46420982 -145.5518719 404.15246731 C-145.57296324 408.74615088 -145.58840243 413.3397047 -145.59067917 417.93343925 C-145.59281933 422.24523462 -145.60862331 426.55675842 -145.63506889 430.86847115 C-145.6422837 432.45234812 -145.64435234 434.03625792 -145.64096642 435.62014771 C-145.6370896 437.77776496 -145.65146575 439.93450703 -145.67050171 442.09202576 C-145.67381186 443.30041327 -145.677122 444.50880079 -145.68053246 445.75380611 C-146.0625 448.6875 -146.0625 448.6875 -147.30276012 450.57548714 C-149.54872888 451.99475721 -150.95793693 452.067229 -153.6103363 452.07518005 C-155.00880798 452.090037 -155.00880798 452.090037 -156.43553162 452.10519409 C-157.45639359 452.10069244 -158.47725555 452.0961908 -159.52905273 452.09155273 C-161.1440416 452.10184761 -161.1440416 452.10184761 -162.79165649 452.11235046 C-166.35993541 452.13069091 -169.92777769 452.12677049 -173.49609375 452.12109375 C-175.97087244 452.1256521 -178.44564985 452.13095663 -180.92042542 452.13697815 C-186.11147193 452.14592355 -191.30236472 452.14346983 -196.4934082 452.13354492 C-203.15306445 452.12205434 -209.81198597 452.14226098 -216.47160244 452.17146206 C-221.58363732 452.18978885 -226.69554435 452.18953858 -231.80760384 452.18382454 C-234.26325283 452.18367089 -236.71891025 452.18975108 -239.17452812 452.20211601 C-242.60554341 452.21695694 -246.03556889 452.20639867 -249.46655273 452.18920898 C-250.48539047 452.19887695 -251.50422821 452.20854492 -252.55393982 452.21850586 C-259.41554813 452.14634724 -259.41554813 452.14634724 -262.6622467 449.84364319 C-264.78950063 446.56804721 -265.18653217 443.97941938 -265.17602539 440.16809082 C-265.1759549 439.23953278 -265.1758844 438.31097473 -265.17581177 437.35427856 C-265.16806229 435.82636185 -265.16806229 435.82636185 -265.16015625 434.26757812 C-265.15869598 433.19148285 -265.15723572 432.11538757 -265.1557312 431.00668335 C-265.15191431 428.6545008 -265.14578645 426.30232116 -265.13766479 423.95014954 C-265.12480584 420.16154411 -265.11835531 416.37297426 -265.11352539 412.58435059 C-265.10019179 403.11997661 -265.07669774 393.65563482 -265.05212402 384.19128418 C-265.00122317 364.35651031 -264.98534717 344.52222647 -265.0625 324.6875 C-265.06504036 324.00185974 -265.06758072 323.31621948 -265.07019806 322.60980225 C-265.10431377 313.65538941 -265.16727564 304.70185744 -265.27102661 295.74797058 C-265.29838139 293.17284728 -265.31925708 290.59764589 -265.33322144 288.02241516 C-265.354362 284.46040592 -265.40048428 280.89955534 -265.453125 277.33789062 C-265.45497551 275.78210297 -265.45497551 275.78210297 -265.4568634 274.19488525 C-265.59263633 267.45874458 -266.69744274 261.60853519 -270.0625 255.6875 C-275.53103438 251.11178756 -280.21548406 250.33291241 -287.13671875 250.40625 C-292.85667187 250.95609863 -297.3325407 253.00306595 -301.4375 257 C-304.99931562 262.89069506 -306.43875539 267.24190058 -306.4098053 274.15708923 C-306.41095744 274.8761309 -306.41210958 275.59517256 -306.41329664 276.33600336 C-306.41355328 278.72808845 -306.39243144 281.11948995 -306.37133789 283.51147461 C-306.36721437 285.23349242 -306.3644471 286.95551393 -306.3629303 288.67753601 C-306.35684815 292.37763685 -306.34136224 296.0775355 -306.31855965 299.77757072 C-306.28269357 305.6317821 -306.26877267 311.48592157 -306.25791931 317.34022522 C-306.23381027 328.71216611 -306.18711835 340.083961 -306.13832855 351.45581818 C-306.07746716 365.9270694 -306.02779575 380.39833869 -305.99633402 394.86968428 C-305.9829691 400.68560627 -305.95911365 406.50136201 -305.9269315 412.31720912 C-305.90878532 415.93947701 -305.89891648 419.56173457 -305.89116478 423.18403816 C-305.88583798 424.8593711 -305.87704467 426.53469729 -305.86446381 428.20999146 C-305.84769399 430.5037161 -305.84347658 432.79714884 -305.84217834 435.09092712 C-305.8364383 436.37234557 -305.83069826 437.65376402 -305.82478428 438.97401333 C-306.09423993 443.18332668 -306.81510109 446.66015084 -308.0625 450.6875 C-310.44326973 451.87788486 -311.90855386 451.82092649 -314.56600952 451.83467102 C-315.51377762 451.84182632 -316.46154572 451.84898163 -317.43803406 451.85635376 C-318.48119278 451.85904266 -319.5243515 451.86173157 -320.59912109 451.86450195 C-321.69514145 451.87107315 -322.7911618 451.87764435 -323.9203949 451.88441467 C-327.55890973 451.90417755 -331.19738327 451.91581578 -334.8359375 451.92578125 C-336.07579029 451.92985678 -337.31564308 451.9339323 -338.59306717 451.93813133 C-344.47597203 451.95684923 -350.35886371 451.97141354 -356.24179113 451.9797433 C-363.0342788 451.98951963 -369.82644093 452.01584971 -376.61881387 452.05624419 C-382.50063646 452.09002431 -388.38237909 452.1018867 -394.2643013 452.10594749 C-396.76741369 452.11083085 -399.27052216 452.12249413 -401.77357101 452.14098549 C-405.27167724 452.16522528 -408.76892609 452.16443951 -412.26708984 452.1574707 C-413.3062001 452.17028076 -414.34531036 452.18309082 -415.41590881 452.19628906 C-416.36931656 452.18934525 -417.3227243 452.18240143 -418.30502319 452.17524719 C-419.54554727 452.17882972 -419.54554727 452.17882972 -420.81113243 452.18248463 C-424.01281513 451.47856416 -425.14701511 450.32838402 -427.0625 447.6875 C-427.55748463 444.62974167 -427.55748463 444.62974167 -427.55024719 440.96795654 C-427.55437046 440.29291305 -427.55849372 439.61786955 -427.56274194 438.9223702 C-427.57167238 436.65974806 -427.55200951 434.39828431 -427.5324707 432.13574219 C-427.53297961 430.51221578 -427.535236 428.88868911 -427.53910828 427.26516724 C-427.54453975 422.84587683 -427.52506329 418.42700406 -427.50100732 414.00778866 C-427.47965419 409.354266 -427.48030223 404.70074405 -427.47831726 400.04718018 C-427.47185847 392.201954 -427.45060353 384.356883 -427.41918945 376.51171875 C-427.37931455 366.54253455 -427.36155565 356.5734527 -427.35188007 346.60419846 C-427.34345874 337.94702669 -427.3262446 329.28987527 -427.30684257 320.6327219 C-427.3028325 318.79792366 -427.29908755 316.96312481 -427.2956202 315.12832546 C-427.26051327 296.67226689 -427.17003661 278.22349981 -426.62573242 259.77441406 C-426.58950681 258.48246502 -426.55328119 257.19051598 -426.51595783 255.85941696 C-425.57278295 227.40880949 -415.79152013 202.1249639 -397.0625 180.6875 C-396.6072998 180.16075684 -396.15209961 179.63401367 -395.68310547 179.09130859 C-386.61151458 168.6662299 -376.7706286 159.11505557 -365.0625 151.6875 C-364.02609375 151.02878906 -362.9896875 150.37007812 -361.921875 149.69140625 C-343.65466507 138.66018016 -323.15423924 133.51270402 -301.875 133.5 C-300.81474609 133.48775391 -299.75449219 133.47550781 -298.66210938 133.46289062 C-292.15781372 133.45099977 -286.06996937 134.05658919 -279.67602539 135.2355957 C-276.71699036 135.74724202 -273.87641424 135.92376744 -270.875 135.875 C-269.52341797 135.86533203 -269.52341797 135.86533203 -268.14453125 135.85546875 C-266.07372799 135.91471314 -266.07372799 135.91471314 -265.0625 134.6875 C-264.82004754 132.28381709 -264.63505974 129.89821512 -264.484375 127.48828125 C-264.3785073 125.96419396 -264.27144388 124.44018937 -264.16333008 122.91625977 C-264.07869003 121.71225021 -264.07869003 121.71225021 -263.99234009 120.48391724 C-260.89731455 77.73601069 -246.58507768 41.80872066 -218.0625 9.6875 C-217.48242188 9.03394531 -216.90234375 8.38039062 -216.3046875 7.70703125 C-192.10622801 -17.88983168 -156.27827172 -32.11418548 -122.0625 -37.3125 C-120.82113281 -37.50972656 -120.82113281 -37.50972656 -119.5546875 -37.7109375 C-77.13605394 -43.17954183 -31.92733181 -28.00016799 0 0 Z " fill="#000000" transform="translate(427.0625,38.3125)"/>
</svg>
